<svg width="595" height="296" viewBox="0 0 595 296" fill="none" xmlns="http://www.w3.org/2000/svg">
<path d="M232.651 1.7979C229.612 0.583733 226.502 0 223.417 0V1.6578C226.362 1.6578 229.261 2.21818 232.02 3.33895C243.778 8.07886 249.506 21.5047 244.737 33.2494C241.207 41.982 232.814 47.6326 223.393 47.6326C220.448 47.6326 217.549 47.0722 214.79 45.9514C209.086 43.6632 204.621 39.2735 202.213 33.623C199.805 27.9725 199.759 21.7149 202.05 16.041C205.58 7.30833 213.972 1.6578 223.393 1.6578V0C213.621 0 204.387 5.83733 200.507 15.4339C195.411 28.0659 201.512 42.4257 214.159 47.5158C217.198 48.73 220.307 49.3137 223.393 49.3137C233.165 49.3137 242.399 43.4764 246.28 33.8798C251.376 21.2479 245.275 6.88804 232.627 1.7979H232.651Z" fill="url(#paint0_linear_236_894)"/>
<path d="M331.42 1.7979C328.381 0.583733 325.272 0 322.186 0V1.6578C325.132 1.6578 328.031 2.21818 330.789 3.33895C342.548 8.07886 348.275 21.5047 343.506 33.2494C339.976 41.982 331.584 47.6326 322.163 47.6326C319.217 47.6326 316.319 47.0722 313.56 45.9514C307.856 43.6632 303.391 39.2735 300.983 33.623C298.575 27.9725 298.528 21.7149 300.819 16.041C304.349 7.30833 312.742 1.6578 322.163 1.6578V0C312.391 0 303.157 5.83733 299.276 15.4339C294.18 28.0659 300.282 42.4257 312.929 47.5158C315.781 48.6599 318.703 49.2203 321.602 49.2904C321.158 49.5472 320.83 49.9909 320.83 50.5512V67.4328L313.209 52.3725C312.835 51.6487 311.97 51.3685 311.246 51.7187C310.521 52.0923 310.24 52.9562 310.591 53.68L318.212 68.7403L304.606 58.7468C303.952 58.2799 303.04 58.42 302.549 59.0504C302.058 59.6808 302.222 60.6148 302.853 61.1051L316.459 71.0986L299.791 68.3201C298.996 68.18 298.248 68.717 298.108 69.5109C297.967 70.3047 298.505 71.0519 299.3 71.192L315.968 73.9706L299.838 79.014C299.066 79.2475 298.645 80.0648 298.879 80.8353C299.113 81.6058 299.931 82.0261 300.702 81.7926L316.833 76.7492L304.723 88.5172C304.139 89.0776 304.139 90.0116 304.7 90.5953C305.261 91.179 306.196 91.179 306.781 90.6186L317.557 80.1348L311.222 93.7708C310.872 94.4946 311.222 95.3819 311.923 95.7088C312.648 96.059 313.537 95.7088 313.864 95.0083L320.784 80.1115V96.923C320.784 97.7402 321.438 98.394 322.256 98.394C323.075 98.394 323.729 97.7402 323.729 96.923V79.6678L331.537 95.0784C331.911 95.8022 332.776 96.0824 333.501 95.7321C334.225 95.3586 334.506 94.4946 334.155 93.7708L326.347 78.3603L340.28 88.5872C340.935 89.0542 341.847 88.9141 342.338 88.2837C342.805 87.6299 342.688 86.7193 342.034 86.229L328.101 76.002L345.143 78.8506C345.938 78.9907 346.686 78.4537 346.826 77.6598C346.966 76.8659 346.429 76.1187 345.634 75.9786L328.592 73.13L345.096 67.9698C345.868 67.7363 346.288 66.9191 346.054 66.1486C345.821 65.378 345.003 64.9578 344.231 65.1913L327.727 70.3514L340.117 58.3266C340.701 57.7662 340.701 56.8322 340.14 56.2485C339.579 55.6647 338.644 55.6647 338.06 56.2251L326.908 67.0358L333.454 52.9562C333.805 52.2324 333.454 51.3451 332.753 51.0182C332.028 50.668 331.14 51.0182 330.813 51.7187L323.776 66.8958V50.5746C323.776 50.0142 323.449 49.5472 323.004 49.3137C332.472 48.9868 341.309 43.2429 345.073 33.9032C350.169 21.2712 344.068 6.91139 331.42 1.82125V1.7979Z" fill="url(#paint1_linear_236_894)"/>
<path d="M362.349 47.5158C365.388 48.73 368.497 49.3137 371.583 49.3137C381.355 49.3137 390.589 43.4764 394.47 33.8798C399.566 21.2479 393.465 6.88804 380.817 1.7979C377.778 0.583733 374.669 0 371.583 0C361.811 0 352.577 5.83733 348.697 15.4339C343.6 28.0659 349.702 42.4257 362.349 47.5158ZM382.641 44.784L373.734 27.2019L389.654 38.8999C387.737 41.3516 385.329 43.313 382.641 44.784ZM392.95 33.2494C392.319 34.7905 391.524 36.1914 390.612 37.5223L374.739 25.871L394.189 29.1166C393.909 30.5175 393.511 31.9185 392.95 33.2728V33.2494ZM394.446 27.4354L375.02 24.1899L393.745 18.3526C394.587 21.3179 394.844 24.4 394.446 27.4354ZM392.81 15.644C392.973 16.0176 393.09 16.3912 393.231 16.7648L374.529 22.6021L388.508 9.03618C390.285 10.9508 391.758 13.169 392.81 15.6674V15.644ZM381.799 4.03943C383.833 5.04345 385.68 6.32766 387.316 7.84537L374.038 20.7342L381.799 4.03943ZM372.261 1.68115C374.996 1.7512 377.662 2.28823 380.233 3.33895H380.28L372.261 20.6408V1.68115ZM372.261 27.9491L381.168 45.5545C378.409 46.8153 375.394 47.5158 372.261 47.5859V27.9491ZM360.947 44.9708C358.913 43.92 357.089 42.6125 355.5 41.0714L368.708 28.2527L360.947 44.9708ZM370.578 47.5859C367.983 47.4691 365.435 46.9321 362.98 45.9514C362.793 45.8814 362.606 45.788 362.443 45.6946L370.578 28.1826V47.5859ZM370.578 1.72785V20.9677L361.882 3.80594C364.57 2.56842 367.492 1.86794 370.578 1.72785ZM360.409 4.59981L369.082 21.7149L353.583 10.3437C355.453 7.98546 357.79 6.04747 360.409 4.59981ZM350.263 16.041C350.894 14.4766 351.736 13.0523 352.648 11.698L368.1 23.0458L349.118 19.8703C349.398 18.586 349.749 17.2785 350.263 16.0176V16.041ZM348.837 21.5281L367.843 24.7036L349.398 30.4708C348.65 27.5989 348.44 24.5635 348.86 21.5514L348.837 21.5281ZM368.334 26.2913L354.377 39.8339C352.367 37.5457 350.824 34.9072 349.865 32.0586L368.334 26.2913Z" fill="url(#paint2_linear_236_894)"/>
<path d="M232.651 51.1347C229.612 49.9205 226.503 49.3368 223.417 49.3368V50.9946C226.362 50.9946 229.261 51.555 232.02 52.6758C237.724 54.964 242.189 59.3537 244.597 65.0042C247.005 70.6547 247.051 76.9123 244.76 82.5862C241.23 91.3188 232.838 96.9694 223.417 96.9694C220.471 96.9694 217.573 96.409 214.814 95.2882C203.055 90.5483 197.328 77.1225 202.097 65.3778C205.627 56.6451 214.019 50.9946 223.44 50.9946V49.3368C213.668 49.3368 204.434 55.1741 200.554 64.7707C195.457 77.4027 201.559 91.7625 214.206 96.8526C217.245 98.0668 220.354 98.6505 223.44 98.6505C233.212 98.6505 242.446 92.8132 246.327 83.2166C251.423 70.5847 245.321 56.2248 232.674 51.1347H232.651Z" fill="url(#paint3_linear_236_894)"/>
<path d="M380.817 51.1347C377.778 49.9205 374.668 49.3368 371.583 49.3368V50.9946C374.528 50.9946 377.427 51.555 380.186 52.6758C385.89 54.964 390.355 59.3537 392.763 65.0042C395.171 70.6547 395.217 76.9123 392.926 82.5862C389.396 91.3188 381.004 96.9694 371.583 96.9694C368.637 96.9694 365.738 96.409 362.98 95.2882C351.221 90.5483 345.493 77.1225 350.262 65.3778C353.792 56.6451 362.185 50.9946 371.606 50.9946V49.3368C361.834 49.3368 352.6 55.1741 348.719 64.7707C343.623 77.4027 349.725 91.7625 362.372 96.8526C365.411 98.0668 368.52 98.6505 371.606 98.6505C381.378 98.6505 390.612 92.8132 394.493 83.2166C399.589 70.5847 393.487 56.2248 380.84 51.1347H380.817Z" fill="url(#paint4_linear_236_894)"/>
<path d="M246.303 132.601C251.399 119.969 245.298 105.61 232.65 100.519C229.611 99.3052 226.502 98.7215 223.416 98.7215C213.644 98.7215 204.41 104.559 200.53 114.155C195.433 126.787 201.535 141.147 214.182 146.237C217.058 147.405 220.027 147.965 222.949 148.012C213.364 148.199 204.34 153.989 200.53 163.422C195.433 176.054 201.535 190.414 214.182 195.504C217.221 196.719 220.33 197.302 223.416 197.302C233.188 197.302 242.422 191.465 246.303 181.868C251.399 169.236 245.298 154.877 232.65 149.786C229.775 148.619 226.806 148.059 223.884 148.012C233.469 147.825 242.492 142.034 246.303 132.601ZM212.218 103.321L220.892 120.436L205.392 109.065C207.262 106.707 209.6 104.769 212.218 103.321ZM202.073 114.762C202.704 113.198 203.545 111.774 204.457 110.419L219.91 121.767L200.904 118.592C201.184 117.284 201.558 116 202.073 114.739V114.762ZM200.623 120.25L219.629 123.425L201.161 129.192C200.389 126.25 200.202 123.238 200.623 120.25ZM202.213 132.344C202.003 131.831 201.816 131.294 201.629 130.78L220.12 125.013L206.164 138.579C204.551 136.757 203.218 134.656 202.236 132.368L202.213 132.344ZM212.709 143.716C210.699 142.665 208.875 141.334 207.286 139.793L220.494 126.951L212.709 143.716ZM222.364 146.307C219.769 146.191 217.221 145.654 214.767 144.673C214.58 144.603 214.393 144.509 214.206 144.416L222.341 126.881V146.284L222.364 146.307ZM222.364 119.666L213.668 102.504C216.356 101.267 219.279 100.566 222.364 100.426V119.666ZM231.996 151.327C243.755 156.067 249.482 169.493 244.713 181.238C241.183 189.971 232.791 195.621 223.369 195.621C220.424 195.621 217.525 195.061 214.767 193.94C209.063 191.652 204.597 187.262 202.19 181.612C199.782 175.961 199.735 169.703 202.026 164.029C205.556 155.297 213.948 149.646 223.369 149.646C226.315 149.646 229.214 150.207 231.972 151.327H231.996ZM244.713 131.971C244.082 133.512 243.287 134.913 242.375 136.244L226.502 124.593L245.952 127.838C245.672 129.239 245.274 130.617 244.736 131.994L244.713 131.971ZM246.186 126.157L226.759 122.911L245.461 117.074C246.303 119.993 246.56 123.075 246.162 126.157H246.186ZM244.947 115.486L226.268 121.324L240.225 107.758C242.305 109.999 243.895 112.638 244.947 115.486ZM233.539 102.761C235.596 103.765 237.443 105.072 239.056 106.567L225.801 119.456L233.562 102.761H233.539ZM224.001 100.379C226.736 100.449 229.401 100.986 231.972 102.037H232.019L224.001 119.339V100.379ZM224.001 146.284V126.647L232.908 144.253C230.149 145.513 227.133 146.214 224.001 146.284ZM234.404 143.459L225.497 125.877L241.417 137.575C239.5 140.026 237.092 141.988 234.404 143.459Z" fill="url(#paint5_linear_236_894)"/>
<path d="M282.047 100.494C279.008 99.2801 275.899 98.6964 272.813 98.6964V100.354C275.758 100.354 278.657 100.915 281.416 102.035C293.175 106.775 298.902 120.201 294.133 131.946C290.603 140.678 282.21 146.329 272.789 146.329C269.844 146.329 266.945 145.769 264.187 144.648C258.483 142.36 254.017 137.97 251.61 132.319C249.202 126.669 249.155 120.411 251.446 114.737C254.976 106.005 263.368 100.354 272.789 100.354V98.6964C263.018 98.6964 253.784 104.534 249.903 114.13C244.807 126.762 250.908 141.122 263.555 146.212C266.594 147.426 269.704 148.01 272.789 148.01C282.561 148.01 291.795 142.173 295.676 132.576C300.772 119.944 294.671 105.584 282.024 100.494H282.047Z" fill="url(#paint6_linear_236_894)"/>
<path d="M282.047 50.2933C279.008 49.0791 275.899 48.4954 272.813 48.4954V50.1532C275.758 50.1532 278.657 50.7136 281.416 51.8344C293.175 56.5743 298.902 70.0001 294.133 81.7448C290.603 90.4774 282.21 96.128 272.789 96.128C269.844 96.128 266.945 95.5676 264.187 94.4468C258.483 92.1586 254.017 87.7689 251.61 82.1184C249.202 76.4679 249.155 70.2103 251.446 64.5364C254.976 55.8037 263.368 50.1532 272.789 50.1532V48.4954C263.018 48.4954 253.784 54.3327 249.903 63.9293C244.807 76.5613 250.908 90.9211 263.555 96.0112C266.594 97.2254 269.704 97.8091 272.789 97.8091C282.561 97.8091 291.795 91.9718 295.676 82.3752C300.772 69.7433 294.671 55.3834 282.024 50.2933H282.047Z" fill="url(#paint7_linear_236_894)"/>
<path d="M256.472 40.2315C256.519 40.4416 256.613 40.6051 256.753 40.7218H256.8C256.8 40.7218 257.034 40.8619 257.174 40.8619C257.221 40.8619 257.244 40.8619 257.291 40.8619H257.337C257.665 40.7919 258.015 40.5584 258.249 40.2315L278.564 11.6519L278.634 11.5352L278.12 11.1616L256.8 39.1574C256.543 39.4843 256.426 39.8812 256.472 40.2081V40.2315Z" fill="url(#paint8_linear_236_894)"/>
<path d="M257.829 44.4339C257.875 44.6907 257.992 44.8775 258.133 44.9709H258.179C258.296 45.111 258.46 45.1577 258.624 45.1577C258.67 45.1577 258.717 45.1577 258.764 45.1577H258.811C259.185 45.0877 259.559 44.8308 259.839 44.4573L290.043 2.42851L290.113 2.33511L289.622 1.93817L258.226 43.2664C257.946 43.64 257.805 44.0837 257.852 44.4806L257.829 44.4339Z" fill="url(#paint9_linear_236_894)"/>
<path d="M261.896 44.2701C261.942 44.4802 262.036 44.6437 262.2 44.7838C262.34 44.8772 262.48 44.9005 262.621 44.9005C262.644 44.9005 262.691 44.9005 262.714 44.9005H262.761C263.088 44.8538 263.415 44.597 263.672 44.2701L284.151 15.4804L284.221 15.3637L283.707 14.9901L262.246 43.196C261.989 43.5229 261.872 43.9199 261.919 44.2701H261.896Z" fill="url(#paint10_linear_236_894)"/>
<path d="M257.15 35.7011C257.15 35.7011 257.197 35.7011 257.244 35.7011H257.291C257.618 35.631 257.922 35.4209 258.132 35.1174L270.966 16.8348L271.037 16.7414L270.546 16.3445L256.823 34.16C256.589 34.4636 256.472 34.8138 256.519 35.1174C256.519 35.3041 256.636 35.4676 256.8 35.6077C256.917 35.6777 257.057 35.7244 257.197 35.7244L257.15 35.7011Z" fill="url(#paint11_linear_236_894)"/>
<path d="M394.47 132.601C399.566 119.969 393.465 105.61 380.817 100.519C377.778 99.3052 374.669 98.7215 371.583 98.7215C361.811 98.7215 352.577 104.559 348.697 114.155C343.6 126.787 349.702 141.147 362.349 146.237C365.225 147.405 368.194 147.965 371.139 148.012C361.554 148.199 352.531 153.989 348.72 163.422C343.624 176.054 349.725 190.414 362.373 195.504C365.412 196.719 368.521 197.302 371.607 197.302C381.378 197.302 390.613 191.465 394.493 181.868C399.589 169.236 393.488 154.877 380.841 149.786C377.965 148.619 374.996 148.059 372.051 148.012C381.636 147.825 390.659 142.034 394.47 132.601ZM360.385 152.612L369.059 169.727L353.559 158.356C355.43 155.997 357.767 154.059 360.385 152.612ZM350.24 164.053C350.871 162.488 351.712 161.064 352.624 159.71L368.077 171.058L349.094 167.882C349.375 166.598 349.725 165.29 350.24 164.029V164.053ZM348.814 169.54L367.819 172.715L349.375 178.483C348.627 175.611 348.416 172.575 348.837 169.563L348.814 169.54ZM349.842 180.07L368.31 174.303L354.354 187.846C352.344 185.558 350.801 182.919 349.842 180.07ZM360.923 192.983C358.889 191.932 357.066 190.624 355.5 189.083L368.708 176.265L360.947 193.006L360.923 192.983ZM370.555 195.598C367.96 195.481 365.412 194.944 362.957 193.963C362.77 193.893 362.583 193.8 362.419 193.706L370.555 176.194V195.598ZM370.555 168.956L361.858 151.794C364.547 150.557 367.469 149.856 370.555 149.716V168.956ZM382.617 192.772L373.711 175.19L389.631 186.888C387.714 189.34 385.306 191.301 382.617 192.772ZM392.927 181.238C392.296 182.779 391.501 184.18 390.589 185.511L374.716 173.86L394.166 177.105C393.885 178.506 393.488 179.907 392.927 181.261V181.238ZM394.423 175.424L374.996 172.178L393.722 166.341C394.563 169.306 394.82 172.389 394.423 175.424ZM392.787 163.633C392.95 164.006 393.067 164.38 393.207 164.753L374.505 170.591L388.485 157.025C390.262 158.939 391.735 161.158 392.787 163.656V163.633ZM381.776 152.028C383.81 153.032 385.656 154.316 387.293 155.834L374.015 168.723L381.776 152.028ZM372.238 149.67C374.973 149.74 377.638 150.277 380.21 151.327H380.256L372.238 168.629V149.67ZM372.238 175.938L381.145 193.543C378.386 194.804 375.37 195.504 372.238 195.574V175.938ZM381.051 102.434C391.852 107.291 397.158 119.596 393.371 130.757C382.337 126.157 376.867 113.642 381.051 102.434ZM371.607 100.379C373.851 100.379 376.048 100.706 378.176 101.337C374.693 109.976 366.323 115.276 357.487 115.276C355.196 115.276 352.858 114.903 350.567 114.132C354.237 105.75 362.396 100.356 371.607 100.356V100.379ZM361.531 144.019C356.528 141.591 352.624 137.528 350.427 132.368C348.346 127.464 348.042 122.141 349.468 117.097C359.731 121.744 364.897 133.325 361.531 144.019ZM362.209 127.698C360.011 122.701 356.248 118.685 351.479 116.163C353.442 116.677 355.453 116.934 357.51 116.934C366.44 116.934 374.692 111.867 378.783 104.092C375.931 114.856 380.958 126.25 390.823 131.411C388.836 130.873 386.802 130.617 384.721 130.617C375.791 130.617 367.539 135.683 363.448 143.482C364.851 138.252 364.43 132.718 362.209 127.675V127.698ZM371.607 146.377C369.199 146.377 366.838 145.98 364.547 145.233C368.264 137.224 376.259 132.321 384.745 132.321C387.223 132.321 389.724 132.765 392.179 133.629C388.298 141.404 380.467 146.377 371.63 146.377H371.607Z" fill="url(#paint12_linear_236_894)"/>
<path d="M331.42 149.786C328.545 148.619 325.576 148.059 322.654 148.012C332.239 147.825 341.262 142.034 345.073 132.601C350.169 119.969 344.068 105.61 331.42 100.519C328.381 99.3052 325.272 98.7215 322.186 98.7215V100.379C325.132 100.379 328.031 100.94 330.789 102.06C342.548 106.8 348.275 120.226 343.506 131.971C339.976 140.704 331.584 146.354 322.163 146.354C319.217 146.354 316.319 145.794 313.56 144.673C307.856 142.385 303.391 137.995 300.983 132.344C298.575 126.694 298.528 120.436 300.819 114.762C304.349 106.03 312.742 100.379 322.163 100.379V98.7215C312.391 98.7215 303.157 104.559 299.276 114.155C294.18 126.787 300.282 141.147 312.929 146.237C315.804 147.405 318.773 147.965 321.719 148.012C312.134 148.199 303.11 153.989 299.3 163.422C294.203 176.054 300.305 190.414 312.952 195.504C315.804 196.648 318.726 197.209 321.625 197.279C321.181 197.536 320.854 197.979 320.854 198.54V215.421L313.233 200.361C312.859 199.637 311.994 199.357 311.269 199.707C310.544 200.081 310.264 200.945 310.614 201.669L318.236 216.729L304.63 206.735C303.975 206.268 303.063 206.408 302.573 207.039C302.082 207.669 302.245 208.603 302.876 209.094L316.482 219.087L299.814 216.309C299.019 216.168 298.271 216.706 298.131 217.499C297.99 218.293 298.528 219.04 299.323 219.181L315.991 221.959L299.861 227.003C299.089 227.236 298.669 228.053 298.902 228.824C299.136 229.594 299.954 230.015 300.726 229.781L316.856 224.738L304.747 236.506C304.162 237.066 304.162 238 304.723 238.584C305.284 239.168 306.22 239.168 306.804 238.607L317.581 228.123L311.246 241.759C310.895 242.483 311.246 243.37 311.947 243.697C312.672 244.048 313.56 243.697 313.887 242.997L320.807 228.1V244.911C320.807 245.729 321.462 246.382 322.28 246.382C323.098 246.382 323.753 245.729 323.753 244.911V227.656L331.561 243.067C331.935 243.791 332.799 244.071 333.524 243.721C334.249 243.347 334.529 242.483 334.179 241.759L326.371 226.349L340.304 236.576C340.958 237.043 341.87 236.903 342.361 236.272C342.828 235.618 342.712 234.708 342.057 234.217L328.124 223.99L345.166 226.839C345.961 226.979 346.709 226.442 346.849 225.648C346.99 224.854 346.452 224.107 345.657 223.967L328.615 221.119L345.12 215.958C345.891 215.725 346.312 214.908 346.078 214.137C345.844 213.367 345.026 212.946 344.255 213.18L327.75 218.34L340.14 206.315C340.725 205.755 340.725 204.821 340.164 204.237C339.603 203.653 338.667 203.653 338.083 204.214L326.932 215.024L333.478 200.945C333.828 200.221 333.478 199.334 332.776 199.007C332.052 198.657 331.163 199.007 330.836 199.707L323.799 214.884V198.563C323.799 198.003 323.472 197.536 323.028 197.302C332.496 196.975 341.332 191.231 345.096 181.892C350.192 169.26 344.091 154.9 331.444 149.81L331.42 149.786ZM343.53 181.261C340 189.994 331.607 195.644 322.186 195.644C319.241 195.644 316.342 195.084 313.583 193.963C307.879 191.675 303.414 187.285 301.006 181.635C298.599 175.984 298.552 169.727 300.843 164.053C304.373 155.32 312.765 149.67 322.186 149.67C325.132 149.67 328.031 150.23 330.789 151.351C342.548 156.091 348.275 169.517 343.506 181.261H343.53Z" fill="url(#paint13_linear_236_894)"/>
<path d="M232.651 199.122C229.612 197.908 226.503 197.324 223.417 197.324V198.982C226.362 198.982 229.261 199.543 232.02 200.663C237.724 202.952 242.189 207.341 244.597 212.992C247.005 218.642 247.051 224.9 244.76 230.574C241.23 239.306 232.838 244.957 223.417 244.957C220.471 244.957 217.573 244.397 214.814 243.276C203.055 238.536 197.328 225.11 202.097 213.365C205.627 204.633 214.019 198.982 223.44 198.982V197.324C213.668 197.324 204.434 203.162 200.554 212.758C195.457 225.39 201.559 239.75 214.206 244.84C217.245 246.054 220.354 246.638 223.44 246.638C233.212 246.638 242.446 240.801 246.327 231.204C251.423 218.572 245.321 204.212 232.674 199.122H232.651Z" fill="url(#paint14_linear_236_894)"/>
<path d="M380.817 199.122C377.778 197.908 374.668 197.324 371.583 197.324V198.982C374.528 198.982 377.427 199.543 380.186 200.663C385.89 202.952 390.355 207.341 392.763 212.992C395.171 218.642 395.217 224.9 392.926 230.574C389.396 239.306 381.004 244.957 371.583 244.957C368.637 244.957 365.738 244.397 362.98 243.276C351.221 238.536 345.493 225.11 350.262 213.365C353.792 204.633 362.185 198.982 371.606 198.982V197.324C361.834 197.324 352.6 203.162 348.719 212.758C343.623 225.39 349.725 239.75 362.372 244.84C365.411 246.054 368.52 246.638 371.606 246.638C381.378 246.638 390.612 240.801 394.493 231.204C399.589 218.572 393.487 204.212 380.84 199.122H380.817Z" fill="url(#paint15_linear_236_894)"/>
<path d="M232.65 248.484C229.611 247.27 226.502 246.686 223.416 246.686C213.644 246.686 204.41 252.524 200.53 262.12C195.433 274.752 201.535 289.112 214.182 294.202C217.221 295.416 220.33 296 223.416 296C233.188 296 242.422 290.163 246.303 280.566C251.399 267.934 245.298 253.574 232.65 248.484ZM212.218 251.309L220.892 268.424L205.392 257.053C207.262 254.695 209.6 252.757 212.218 251.309ZM202.073 262.751C202.704 261.186 203.545 259.762 204.457 258.408L219.91 269.755L200.904 266.58C201.184 265.272 201.558 263.988 202.073 262.727V262.751ZM200.623 268.238L219.629 271.413L201.161 277.18C200.389 274.238 200.202 271.226 200.623 268.238ZM202.213 280.333C202.003 279.819 201.816 279.282 201.629 278.768L220.12 273.001L206.164 286.567C204.551 284.746 203.218 282.644 202.236 280.356L202.213 280.333ZM212.709 291.704C210.699 290.653 208.875 289.322 207.286 287.781L220.494 274.939L212.709 291.704ZM222.364 294.296C219.769 294.179 217.221 293.642 214.767 292.661C214.58 292.591 214.393 292.498 214.206 292.404L222.341 274.869V294.272L222.364 294.296ZM222.364 267.654L213.668 250.492C216.356 249.255 219.279 248.554 222.364 248.414V267.654ZM233.562 250.749C235.619 251.753 237.466 253.061 239.079 254.555L225.824 267.444L233.585 250.749H233.562ZM224.024 248.367C226.759 248.437 229.424 248.975 231.996 250.025H232.043L224.024 267.327V248.367ZM224.024 294.272V274.635L232.931 292.241C230.172 293.502 227.157 294.202 224.024 294.272ZM234.427 291.447L225.52 273.865L241.44 285.563C239.523 288.015 237.115 289.976 234.427 291.447ZM244.736 279.912C244.105 281.453 243.31 282.854 242.399 284.185L226.526 272.534L245.975 275.78C245.695 277.18 245.298 278.558 244.76 279.936L244.736 279.912ZM246.209 274.098L226.783 270.853L245.485 265.015C246.326 267.934 246.583 271.016 246.186 274.098H246.209ZM226.292 269.265L240.248 255.699C242.329 257.941 243.918 260.579 244.97 263.428L226.292 269.265Z" fill="url(#paint16_linear_236_894)"/>
<path d="M282.047 248.484C279.008 247.27 275.899 246.686 272.813 246.686V248.344C275.758 248.344 278.657 248.904 281.416 250.025C293.175 254.765 298.902 268.191 294.133 279.936C290.603 288.668 282.21 294.319 272.789 294.319C269.844 294.319 266.945 293.758 264.187 292.638C258.483 290.349 254.017 285.96 251.61 280.309C249.202 274.659 249.155 268.401 251.446 262.727C254.976 253.995 263.368 248.344 272.789 248.344V246.686C263.018 246.686 253.784 252.524 249.903 262.12C244.807 274.752 250.908 289.112 263.555 294.202C266.594 295.416 269.704 296 272.789 296C282.561 296 291.795 290.163 295.676 280.566C300.772 267.934 294.671 253.574 282.024 248.484H282.047Z" fill="url(#paint17_linear_236_894)"/>
<path d="M331.42 248.484C328.381 247.27 325.272 246.686 322.186 246.686V248.344C325.132 248.344 328.031 248.904 330.789 250.025C342.548 254.765 348.275 268.191 343.506 279.936C339.976 288.668 331.584 294.319 322.163 294.319C319.217 294.319 316.319 293.758 313.56 292.638C307.856 290.349 303.391 285.96 300.983 280.309C298.575 274.659 298.528 268.401 300.819 262.727C304.349 253.995 312.742 248.344 322.163 248.344V246.686C312.391 246.686 303.157 252.524 299.276 262.12C294.18 274.752 300.282 289.112 312.929 294.202C315.968 295.416 319.077 296 322.163 296C331.935 296 341.169 290.163 345.049 280.566C350.146 267.934 344.044 253.574 331.397 248.484H331.42Z" fill="url(#paint18_linear_236_894)"/>
<path d="M282.047 198.283C279.008 197.069 275.899 196.485 272.813 196.485V198.143C275.758 198.143 278.657 198.703 281.416 199.824C293.175 204.564 298.902 217.99 294.133 229.735C290.603 238.467 282.21 244.118 272.789 244.118C269.844 244.118 266.945 243.557 264.187 242.437C258.483 240.148 254.017 235.759 251.61 230.108C249.202 224.458 249.155 218.2 251.446 212.526C254.976 203.794 263.368 198.143 272.789 198.143V196.485C263.018 196.485 253.784 202.323 249.903 211.919C244.807 224.551 250.908 238.911 263.555 244.001C266.594 245.215 269.704 245.799 272.789 245.799C282.561 245.799 291.795 239.962 295.676 230.365C300.772 217.733 294.671 203.373 282.024 198.283H282.047Z" fill="url(#paint19_linear_236_894)"/>
<path d="M256.8 187.146C256.543 187.472 256.426 187.869 256.472 188.196C256.519 188.406 256.613 188.57 256.753 188.687H256.8C256.8 188.687 257.034 188.827 257.174 188.827C257.221 188.827 257.244 188.827 257.291 188.827H257.337C257.665 188.757 258.015 188.523 258.249 188.196L278.564 159.617L278.634 159.5L278.12 159.126L256.8 187.122V187.146Z" fill="url(#paint20_linear_236_894)"/>
<path d="M290.089 150.252L289.598 149.855L258.202 191.183C257.922 191.557 257.782 192.001 257.828 192.398C257.875 192.654 257.992 192.841 258.132 192.935H258.179C258.296 193.075 258.46 193.121 258.623 193.121C258.67 193.121 258.717 193.121 258.763 193.121H258.81C259.184 193.075 259.559 192.794 259.839 192.421L290.043 150.392L290.113 150.299L290.089 150.252Z" fill="url(#paint21_linear_236_894)"/>
<path d="M261.896 192.258C261.942 192.468 262.036 192.631 262.2 192.771C262.34 192.865 262.48 192.888 262.621 192.888C262.644 192.888 262.691 192.888 262.714 192.888H262.761C263.088 192.841 263.415 192.585 263.672 192.258L284.151 163.468L284.221 163.351L283.707 162.978L262.246 191.184C261.989 191.51 261.872 191.907 261.919 192.258H261.896Z" fill="url(#paint22_linear_236_894)"/>
<path d="M256.776 182.124C256.543 182.428 256.426 182.778 256.472 183.082C256.472 183.268 256.589 183.432 256.753 183.572C256.87 183.642 257.01 183.689 257.15 183.689C257.174 183.689 257.197 183.689 257.244 183.689H257.291C257.618 183.619 257.922 183.408 258.132 183.105L270.966 164.822L271.037 164.729L270.546 164.332L256.823 182.148L256.776 182.124Z" fill="url(#paint23_linear_236_894)"/>
<path d="M380.817 248.484C377.778 247.27 374.669 246.686 371.583 246.686C361.811 246.686 352.577 252.524 348.697 262.12C343.6 274.752 349.702 289.112 362.349 294.202C365.388 295.416 368.497 296 371.583 296C381.355 296 390.589 290.163 394.47 280.566C399.566 267.934 393.465 253.574 380.817 248.484ZM371.583 248.344C373.827 248.344 376.025 248.671 378.152 249.301C374.669 257.941 366.3 263.241 357.463 263.241C355.172 263.241 352.835 262.867 350.544 262.097C354.214 253.714 362.372 248.321 371.583 248.321V248.344ZM361.508 291.984C356.505 289.556 352.601 285.493 350.403 280.333C348.323 275.429 348.019 270.106 349.445 265.062C359.708 269.709 364.874 281.29 361.508 291.984ZM362.185 275.663C359.988 270.666 356.224 266.65 351.455 264.128C353.419 264.642 355.429 264.899 357.487 264.899C366.417 264.899 374.669 259.832 378.76 252.057C375.908 262.821 380.934 274.215 390.799 279.375C388.812 278.838 386.779 278.581 384.698 278.581C375.768 278.581 367.516 283.648 363.425 291.447C364.827 286.217 364.406 280.683 362.185 275.639V275.663ZM371.583 294.319C369.175 294.319 366.814 293.922 364.523 293.175C368.24 285.166 376.235 280.263 384.721 280.263C387.199 280.263 389.701 280.706 392.155 281.57C388.275 289.345 380.443 294.319 371.607 294.319H371.583ZM393.348 278.722C382.314 274.122 376.843 261.606 381.028 250.399C391.828 255.255 397.135 267.561 393.348 278.722Z" fill="url(#paint24_linear_236_894)"/>
<path d="M431.359 1.7979C428.32 0.583733 425.211 0 422.125 0V1.6578C425.07 1.6578 427.969 2.21818 430.728 3.33895C442.487 8.07886 448.214 21.5047 443.445 33.2494C439.915 41.982 431.522 47.6326 422.101 47.6326C419.156 47.6326 416.257 47.0722 413.499 45.9514C407.794 43.6632 403.329 39.2735 400.922 33.623C398.514 27.9725 398.467 21.7149 400.758 16.041C404.288 7.30833 412.68 1.6578 422.101 1.6578V0C412.33 0 403.096 5.83733 399.215 15.4339C394.119 28.0659 400.22 42.4257 412.867 47.5158C415.906 48.73 419.016 49.3137 422.101 49.3137C431.873 49.3137 441.107 43.4764 444.988 33.8798C450.084 21.2479 443.983 6.88804 431.336 1.7979H431.359Z" fill="url(#paint25_linear_236_894)"/>
<path d="M530.129 1.7979C527.09 0.583733 523.98 0 520.894 0V1.6578C523.84 1.6578 526.739 2.21818 529.497 3.33895C541.256 8.07886 546.984 21.5047 542.215 33.2494C538.685 41.982 530.292 47.6326 520.871 47.6326C517.925 47.6326 515.027 47.0722 512.268 45.9514C506.564 43.6632 502.099 39.2735 499.691 33.623C497.283 27.9725 497.236 21.7149 499.527 16.041C503.057 7.30833 511.45 1.6578 520.871 1.6578V0C511.099 0 501.865 5.83733 497.985 15.4339C492.888 28.0659 498.99 42.4257 511.637 47.5158C514.489 48.6599 517.411 49.2203 520.31 49.2904C519.866 49.5472 519.539 49.9909 519.539 50.5512V67.4328L511.918 52.3725C511.543 51.6487 510.679 51.3685 509.954 51.7187C509.229 52.0923 508.949 52.9562 509.299 53.68L516.92 68.7403L503.314 58.7468C502.66 58.2799 501.748 58.42 501.257 59.0504C500.766 59.6808 500.93 60.6148 501.561 61.1051L515.167 71.0986L498.499 68.3201C497.704 68.18 496.956 68.717 496.816 69.5109C496.676 70.3047 497.213 71.0519 498.008 71.192L514.676 73.9706L498.546 79.014C497.774 79.2475 497.353 80.0648 497.587 80.8353C497.821 81.6058 498.639 82.0261 499.411 81.7926L515.541 76.7492L503.431 88.5172C502.847 89.0776 502.847 90.0116 503.408 90.5953C503.969 91.179 504.904 91.179 505.489 90.6186L516.266 80.1348L509.93 93.7708C509.58 94.4946 509.93 95.3819 510.632 95.7088C511.356 96.059 512.245 95.7088 512.572 95.0083L519.492 80.1115V96.923C519.492 97.7402 520.146 98.394 520.965 98.394C521.783 98.394 522.437 97.7402 522.437 96.923V79.6678L530.245 95.0784C530.619 95.8022 531.484 96.0824 532.209 95.7321C532.934 95.3586 533.214 94.4946 532.864 93.7708L525.056 78.3603L538.988 88.5872C539.643 89.0542 540.555 88.9141 541.046 88.2837C541.513 87.6299 541.396 86.7193 540.742 86.229L526.809 76.002L543.851 78.8506C544.646 78.9907 545.394 78.4537 545.534 77.6598C545.674 76.8659 545.137 76.1187 544.342 75.9786L527.3 73.13L543.804 67.9698C544.576 67.7363 544.996 66.9191 544.763 66.1486C544.529 65.378 543.711 64.9578 542.939 65.1913L526.435 70.3514L538.825 58.3266C539.409 57.7662 539.409 56.8322 538.848 56.2485C538.287 55.6647 537.352 55.6647 536.768 56.2251L525.617 67.0358L532.162 52.9562C532.513 52.2324 532.162 51.3451 531.461 51.0182C530.736 50.668 529.848 51.0182 529.521 51.7187L522.484 66.8958V50.5746C522.484 50.0142 522.157 49.5472 521.713 49.3137C531.18 48.9868 540.017 43.2429 543.781 33.9032C548.877 21.2712 542.776 6.91139 530.129 1.82125V1.7979Z" fill="url(#paint26_linear_236_894)"/>
<path d="M561.057 47.5158C564.096 48.73 567.206 49.3137 570.291 49.3137C580.063 49.3137 589.297 43.4764 593.178 33.8798C598.274 21.2479 592.173 6.88804 579.526 1.7979C576.487 0.583733 573.377 0 570.291 0C560.52 0 551.285 5.83733 547.405 15.4339C542.308 28.0659 548.41 42.4257 561.057 47.5158ZM581.349 44.784L572.442 27.2019L588.362 38.8999C586.445 41.3516 584.037 43.313 581.349 44.784ZM591.658 33.2494C591.027 34.7905 590.232 36.1914 589.321 37.5223L573.447 25.871L592.897 29.1166C592.617 30.5175 592.219 31.9185 591.658 33.2728V33.2494ZM593.155 27.4354L573.728 24.1899L592.453 18.3526C593.295 21.3179 593.552 24.4 593.155 27.4354ZM591.518 15.644C591.682 16.0176 591.799 16.3912 591.939 16.7648L573.237 22.6021L587.217 9.03618C588.993 10.9508 590.466 13.169 591.518 15.6674V15.644ZM580.507 4.03943C582.541 5.04345 584.388 6.32766 586.024 7.84537L572.746 20.7342L580.507 4.03943ZM570.969 1.68115C573.705 1.7512 576.37 2.28823 578.941 3.33895H578.988L570.969 20.6408V1.68115ZM570.969 27.9491L579.876 45.5545C577.118 46.8153 574.102 47.5158 570.969 47.5859V27.9491ZM559.655 44.9708C557.621 43.92 555.797 42.6125 554.208 41.0714L567.416 28.2527L559.655 44.9708ZM569.286 47.5859C566.691 47.4691 564.143 46.9321 561.689 45.9514C561.502 45.8814 561.314 45.788 561.151 45.6946L569.286 28.1826V47.5859ZM569.286 1.72785V20.9677L560.59 3.80594C563.278 2.56842 566.201 1.86794 569.286 1.72785ZM559.117 4.59981L567.79 21.7149L552.291 10.3437C554.161 7.98546 556.499 6.04747 559.117 4.59981ZM548.971 16.041C549.602 14.4766 550.444 13.0523 551.356 11.698L566.808 23.0458L547.826 19.8703C548.106 18.586 548.457 17.2785 548.971 16.0176V16.041ZM547.545 21.5281L566.551 24.7036L548.106 30.4708C547.358 27.5989 547.148 24.5635 547.569 21.5514L547.545 21.5281ZM567.042 26.2913L553.086 39.8339C551.075 37.5457 549.532 34.9072 548.574 32.0586L567.042 26.2913Z" fill="url(#paint27_linear_236_894)"/>
<path d="M431.359 51.1347C428.32 49.9205 425.211 49.3368 422.125 49.3368V50.9946C425.071 50.9946 427.969 51.555 430.728 52.6758C436.432 54.964 440.897 59.3537 443.305 65.0042C445.713 70.6547 445.76 76.9123 443.469 82.5862C439.939 91.3188 431.546 96.9694 422.125 96.9694C419.179 96.9694 416.281 96.409 413.522 95.2882C401.763 90.5483 396.036 77.1225 400.805 65.3778C404.335 56.6451 412.727 50.9946 422.148 50.9946V49.3368C412.377 49.3368 403.142 55.1741 399.262 64.7707C394.165 77.4027 400.267 91.7625 412.914 96.8526C415.953 98.0668 419.063 98.6505 422.148 98.6505C431.92 98.6505 441.154 92.8132 445.035 83.2166C450.131 70.5847 444.03 56.2248 431.382 51.1347H431.359Z" fill="url(#paint28_linear_236_894)"/>
<path d="M579.525 51.1347C576.486 49.9205 573.377 49.3368 570.291 49.3368V50.9946C573.236 50.9946 576.135 51.555 578.894 52.6758C584.598 54.964 589.063 59.3537 591.471 65.0042C593.879 70.6547 593.925 76.9123 591.634 82.5862C588.104 91.3188 579.712 96.9694 570.291 96.9694C567.345 96.9694 564.447 96.409 561.688 95.2882C549.929 90.5483 544.202 77.1225 548.971 65.3778C552.501 56.6451 560.893 50.9946 570.314 50.9946V49.3368C560.542 49.3368 551.308 55.1741 547.428 64.7707C542.331 77.4027 548.433 91.7625 561.08 96.8526C564.119 98.0668 567.228 98.6505 570.314 98.6505C580.086 98.6505 589.32 92.8132 593.201 83.2166C598.297 70.5847 592.195 56.2248 579.548 51.1347H579.525Z" fill="url(#paint29_linear_236_894)"/>
<path d="M445.011 132.601C450.107 119.969 444.006 105.61 431.359 100.519C428.32 99.3052 425.21 98.7215 422.124 98.7215C412.353 98.7215 403.118 104.559 399.238 114.155C394.142 126.787 400.243 141.147 412.89 146.237C415.766 147.405 418.735 147.965 421.657 148.012C412.072 148.199 403.048 153.989 399.238 163.422C394.142 176.054 400.243 190.414 412.89 195.504C415.929 196.719 419.039 197.302 422.124 197.302C431.896 197.302 441.13 191.465 445.011 181.868C450.107 169.236 444.006 154.877 431.359 149.786C428.483 148.619 425.514 148.059 422.592 148.012C432.177 147.825 441.2 142.034 445.011 132.601ZM410.927 103.321L419.6 120.436L404.1 109.065C405.971 106.707 408.308 104.769 410.927 103.321ZM400.781 114.762C401.412 113.198 402.254 111.774 403.165 110.419L418.618 121.767L399.612 118.592C399.892 117.284 400.266 116 400.781 114.739V114.762ZM399.331 120.25L418.337 123.425L399.869 129.192C399.098 126.25 398.911 123.238 399.331 120.25ZM400.921 132.344C400.711 131.831 400.524 131.294 400.337 130.78L418.828 125.013L404.872 138.579C403.259 136.757 401.926 134.656 400.945 132.368L400.921 132.344ZM411.418 143.716C409.407 142.665 407.584 141.334 405.994 139.793L419.202 126.951L411.418 143.716ZM421.073 146.307C418.478 146.191 415.929 145.654 413.475 144.673C413.288 144.603 413.101 144.509 412.914 144.416L421.049 126.881V146.284L421.073 146.307ZM421.073 119.666L412.376 102.504C415.065 101.267 417.987 100.566 421.073 100.426V119.666ZM430.704 151.327C442.463 156.067 448.19 169.493 443.421 181.238C439.891 189.971 431.499 195.621 422.078 195.621C419.132 195.621 416.233 195.061 413.475 193.94C407.771 191.652 403.306 187.262 400.898 181.612C398.49 175.961 398.443 169.703 400.734 164.029C404.264 155.297 412.656 149.646 422.078 149.646C425.023 149.646 427.922 150.207 430.681 151.327H430.704ZM443.421 131.971C442.79 133.512 441.995 134.913 441.083 136.244L425.21 124.593L444.66 127.838C444.38 129.239 443.982 130.617 443.445 131.994L443.421 131.971ZM444.894 126.157L425.467 122.911L444.169 117.074C445.011 119.993 445.268 123.075 444.871 126.157H444.894ZM443.655 115.486L424.976 121.324L438.933 107.758C441.013 109.999 442.603 112.638 443.655 115.486ZM432.247 102.761C434.304 103.765 436.151 105.072 437.764 106.567L424.509 119.456L432.27 102.761H432.247ZM422.709 100.379C425.444 100.449 428.109 100.986 430.681 102.037H430.727L422.709 119.339V100.379ZM422.709 146.284V126.647L431.616 144.253C428.857 145.513 425.841 146.214 422.709 146.284ZM433.112 143.459L424.205 125.877L440.125 137.575C438.208 140.026 435.8 141.988 433.112 143.459Z" fill="url(#paint30_linear_236_894)"/>
<path d="M480.755 100.494C477.716 99.2801 474.607 98.6964 471.521 98.6964V100.354C474.466 100.354 477.365 100.915 480.124 102.035C491.883 106.775 497.61 120.201 492.841 131.946C489.311 140.678 480.919 146.329 471.498 146.329C468.552 146.329 465.653 145.769 462.895 144.648C457.191 142.36 452.726 137.97 450.318 132.319C447.91 126.669 447.863 120.411 450.154 114.737C453.684 106.005 462.076 100.354 471.498 100.354V98.6964C461.726 98.6964 452.492 104.534 448.611 114.13C443.515 126.762 449.616 141.122 462.264 146.212C465.303 147.426 468.412 148.01 471.498 148.01C481.269 148.01 490.503 142.173 494.384 132.576C499.48 119.944 493.379 105.584 480.732 100.494H480.755Z" fill="url(#paint31_linear_236_894)"/>
<path d="M480.755 50.2933C477.716 49.0791 474.607 48.4954 471.521 48.4954V50.1532C474.466 50.1532 477.365 50.7136 480.124 51.8344C491.883 56.5743 497.61 70.0001 492.841 81.7448C489.311 90.4774 480.919 96.128 471.498 96.128C468.552 96.128 465.653 95.5676 462.895 94.4468C457.191 92.1586 452.726 87.7689 450.318 82.1184C447.91 76.4679 447.863 70.2103 450.154 64.5364C453.684 55.8037 462.076 50.1532 471.498 50.1532V48.4954C461.726 48.4954 452.492 54.3327 448.611 63.9293C443.515 76.5613 449.616 90.9211 462.264 96.0112C465.303 97.2254 468.412 97.8091 471.498 97.8091C481.269 97.8091 490.503 91.9718 494.384 82.3752C499.48 69.7433 493.379 55.3834 480.732 50.2933H480.755Z" fill="url(#paint32_linear_236_894)"/>
<path d="M455.181 40.2315C455.227 40.4416 455.321 40.6051 455.461 40.7218H455.508C455.508 40.7218 455.742 40.8619 455.882 40.8619C455.929 40.8619 455.952 40.8619 455.999 40.8619H456.046C456.373 40.7919 456.723 40.5584 456.957 40.2315L477.272 11.6519L477.342 11.5352L476.828 11.1616L455.508 39.1574C455.251 39.4843 455.134 39.8812 455.181 40.2081V40.2315Z" fill="url(#paint33_linear_236_894)"/>
<path d="M456.537 44.4339C456.584 44.6907 456.7 44.8775 456.841 44.9709H456.888C457.004 45.111 457.168 45.1577 457.332 45.1577C457.379 45.1577 457.425 45.1577 457.472 45.1577H457.519C457.893 45.0877 458.267 44.8308 458.547 44.4573L488.751 2.42851L488.821 2.33511L488.33 1.93817L456.934 43.2664C456.654 43.64 456.513 44.0837 456.56 44.4806L456.537 44.4339Z" fill="url(#paint34_linear_236_894)"/>
<path d="M460.604 44.2701C460.651 44.4802 460.744 44.6437 460.908 44.7838C461.048 44.8772 461.188 44.9005 461.329 44.9005C461.352 44.9005 461.399 44.9005 461.422 44.9005H461.469C461.796 44.8538 462.123 44.597 462.381 44.2701L482.859 15.4804L482.929 15.3637L482.415 14.9901L460.955 43.196C460.697 43.5229 460.581 43.9199 460.627 44.2701H460.604Z" fill="url(#paint35_linear_236_894)"/>
<path d="M455.859 35.7011C455.859 35.7011 455.905 35.7011 455.952 35.7011H455.999C456.326 35.631 456.63 35.4209 456.84 35.1174L469.674 16.8348L469.745 16.7414L469.254 16.3445L455.531 34.16C455.298 34.4636 455.181 34.8138 455.227 35.1174C455.227 35.3041 455.344 35.4676 455.508 35.6077C455.625 35.6777 455.765 35.7244 455.905 35.7244L455.859 35.7011Z" fill="url(#paint36_linear_236_894)"/>
<path d="M593.178 132.601C598.274 119.969 592.173 105.61 579.526 100.519C576.487 99.3052 573.377 98.7215 570.291 98.7215C560.52 98.7215 551.285 104.559 547.405 114.155C542.308 126.787 548.41 141.147 561.057 146.237C563.933 147.405 566.902 147.965 569.847 148.012C560.263 148.199 551.239 153.989 547.428 163.422C542.332 176.054 548.434 190.414 561.081 195.504C564.12 196.719 567.229 197.302 570.315 197.302C580.087 197.302 589.321 191.465 593.201 181.868C598.298 169.236 592.196 154.877 579.549 149.786C576.673 148.619 573.705 148.059 570.759 148.012C580.344 147.825 589.367 142.034 593.178 132.601ZM559.094 152.612L567.767 169.727L552.267 158.356C554.138 155.997 556.475 154.059 559.094 152.612ZM548.948 164.053C549.579 162.488 550.421 161.064 551.332 159.71L566.785 171.058L547.802 167.882C548.083 166.598 548.433 165.29 548.948 164.029V164.053ZM547.522 169.54L566.528 172.715L548.083 178.483C547.335 175.611 547.124 172.575 547.545 169.563L547.522 169.54ZM548.551 180.07L567.018 174.303L553.062 187.846C551.052 185.558 549.509 182.919 548.551 180.07ZM559.631 192.983C557.598 191.932 555.774 190.624 554.208 189.083L567.416 176.265L559.655 193.006L559.631 192.983ZM569.263 195.598C566.668 195.481 564.12 194.944 561.665 193.963C561.478 193.893 561.291 193.8 561.127 193.706L569.263 176.194V195.598ZM569.263 168.956L560.566 151.794C563.255 150.557 566.177 149.856 569.263 149.716V168.956ZM581.325 192.772L572.419 175.19L588.339 186.888C586.422 189.34 584.014 191.301 581.325 192.772ZM591.635 181.238C591.004 182.779 590.209 184.18 589.297 185.511L573.424 173.86L592.874 177.105C592.594 178.506 592.196 179.907 591.635 181.261V181.238ZM593.131 175.424L573.704 172.178L592.43 166.341C593.271 169.306 593.529 172.389 593.131 175.424ZM591.495 163.633C591.659 164.006 591.775 164.38 591.916 164.753L573.214 170.591L587.193 157.025C588.97 158.939 590.443 161.158 591.495 163.656V163.633ZM580.484 152.028C582.518 153.032 584.365 154.316 586.001 155.834L572.723 168.723L580.484 152.028ZM570.946 149.67C573.681 149.74 576.346 150.277 578.918 151.327H578.964L570.946 168.629V149.67ZM570.946 175.938L579.853 193.543C577.094 194.804 574.079 195.504 570.946 195.574V175.938ZM579.759 102.434C590.56 107.291 595.866 119.596 592.079 130.757C581.045 126.157 575.575 113.642 579.759 102.434ZM570.315 100.379C572.559 100.379 574.757 100.706 576.884 101.337C573.401 109.976 565.031 115.276 556.195 115.276C553.904 115.276 551.566 114.903 549.275 114.132C552.945 105.75 561.104 100.356 570.315 100.356V100.379ZM560.239 144.019C555.236 141.591 551.332 137.528 549.135 132.368C547.054 127.464 546.75 122.141 548.176 117.097C558.439 121.744 563.606 133.325 560.239 144.019ZM560.917 127.698C558.72 122.701 554.956 118.685 550.187 116.163C552.151 116.677 554.161 116.934 556.218 116.934C565.148 116.934 573.4 111.867 577.492 104.092C574.639 114.856 579.666 126.25 589.531 131.411C587.544 130.873 585.51 130.617 583.43 130.617C574.499 130.617 566.247 135.683 562.156 143.482C563.559 138.252 563.138 132.718 560.917 127.675V127.698ZM570.315 146.377C567.907 146.377 565.546 145.98 563.255 145.233C566.972 137.224 574.967 132.321 583.453 132.321C585.931 132.321 588.432 132.765 590.887 133.629C587.006 141.404 579.175 146.377 570.338 146.377H570.315Z" fill="url(#paint37_linear_236_894)"/>
<path d="M530.129 149.786C527.253 148.619 524.284 148.059 521.362 148.012C530.947 147.825 539.97 142.034 543.781 132.601C548.877 119.969 542.776 105.61 530.129 100.519C527.09 99.3052 523.98 98.7215 520.894 98.7215V100.379C523.84 100.379 526.739 100.94 529.497 102.06C541.256 106.8 546.984 120.226 542.215 131.971C538.685 140.704 530.292 146.354 520.871 146.354C517.925 146.354 515.027 145.794 512.268 144.673C506.564 142.385 502.099 137.995 499.691 132.344C497.283 126.694 497.236 120.436 499.527 114.762C503.057 106.03 511.45 100.379 520.871 100.379V98.7215C511.099 98.7215 501.865 104.559 497.985 114.155C492.888 126.787 498.99 141.147 511.637 146.237C514.512 147.405 517.481 147.965 520.427 148.012C510.842 148.199 501.818 153.989 498.008 163.422C492.911 176.054 499.013 190.414 511.66 195.504C514.512 196.648 517.435 197.209 520.333 197.279C519.889 197.536 519.562 197.979 519.562 198.54V215.421L511.941 200.361C511.567 199.637 510.702 199.357 509.977 199.707C509.253 200.081 508.972 200.945 509.323 201.669L516.944 216.729L503.338 206.735C502.683 206.268 501.772 206.408 501.281 207.039C500.79 207.669 500.953 208.603 501.585 209.094L515.19 219.087L498.522 216.309C497.727 216.168 496.979 216.706 496.839 217.499C496.699 218.293 497.236 219.04 498.031 219.181L514.699 221.959L498.569 227.003C497.798 227.236 497.377 228.053 497.611 228.824C497.844 229.594 498.663 230.015 499.434 229.781L515.564 224.738L503.455 236.506C502.87 237.066 502.87 238 503.431 238.584C503.993 239.168 504.928 239.168 505.512 238.607L516.289 228.123L509.954 241.759C509.603 242.483 509.954 243.37 510.655 243.697C511.38 244.048 512.268 243.697 512.596 242.997L519.515 228.1V244.911C519.515 245.729 520.17 246.382 520.988 246.382C521.806 246.382 522.461 245.729 522.461 244.911V227.656L530.269 243.067C530.643 243.791 531.508 244.071 532.232 243.721C532.957 243.347 533.238 242.483 532.887 241.759L525.079 226.349L539.012 236.576C539.666 237.043 540.578 236.903 541.069 236.272C541.537 235.618 541.42 234.708 540.765 234.217L526.832 223.99L543.875 226.839C544.669 226.979 545.417 226.442 545.558 225.648C545.698 224.854 545.16 224.107 544.365 223.967L527.323 221.119L543.828 215.958C544.599 215.725 545.02 214.908 544.786 214.137C544.552 213.367 543.734 212.946 542.963 213.18L526.458 218.34L538.848 206.315C539.433 205.755 539.433 204.821 538.872 204.237C538.311 203.653 537.376 203.653 536.791 204.214L525.64 215.024L532.186 200.945C532.536 200.221 532.186 199.334 531.484 199.007C530.76 198.657 529.871 199.007 529.544 199.707L522.508 214.884V198.563C522.508 198.003 522.18 197.536 521.736 197.302C531.204 196.975 540.041 191.231 543.804 181.892C548.901 169.26 542.799 154.9 530.152 149.81L530.129 149.786ZM542.238 181.261C538.708 189.994 530.315 195.644 520.894 195.644C517.949 195.644 515.05 195.084 512.292 193.963C506.588 191.675 502.122 187.285 499.715 181.635C497.307 175.984 497.26 169.727 499.551 164.053C503.081 155.32 511.473 149.67 520.894 149.67C523.84 149.67 526.739 150.23 529.497 151.351C541.256 156.091 546.984 169.517 542.215 181.261H542.238Z" fill="url(#paint38_linear_236_894)"/>
<path d="M431.359 199.122C428.32 197.908 425.211 197.324 422.125 197.324V198.982C425.071 198.982 427.969 199.543 430.728 200.663C436.432 202.952 440.897 207.341 443.305 212.992C445.713 218.642 445.76 224.9 443.469 230.574C439.939 239.306 431.546 244.957 422.125 244.957C419.179 244.957 416.281 244.397 413.522 243.276C401.763 238.536 396.036 225.11 400.805 213.365C404.335 204.633 412.727 198.982 422.148 198.982V197.324C412.377 197.324 403.142 203.162 399.262 212.758C394.165 225.39 400.267 239.75 412.914 244.84C415.953 246.054 419.063 246.638 422.148 246.638C431.92 246.638 441.154 240.801 445.035 231.204C450.131 218.572 444.03 204.212 431.382 199.122H431.359Z" fill="url(#paint39_linear_236_894)"/>
<path d="M579.525 199.122C576.486 197.908 573.377 197.324 570.291 197.324V198.982C573.236 198.982 576.135 199.543 578.894 200.663C584.598 202.952 589.063 207.341 591.471 212.992C593.879 218.642 593.925 224.9 591.634 230.574C588.104 239.306 579.712 244.957 570.291 244.957C567.345 244.957 564.447 244.397 561.688 243.276C549.929 238.536 544.202 225.11 548.971 213.365C552.501 204.633 560.893 198.982 570.314 198.982V197.324C560.542 197.324 551.308 203.162 547.428 212.758C542.331 225.39 548.433 239.75 561.08 244.84C564.119 246.054 567.228 246.638 570.314 246.638C580.086 246.638 589.32 240.801 593.201 231.204C598.297 218.572 592.195 204.212 579.548 199.122H579.525Z" fill="url(#paint40_linear_236_894)"/>
<path d="M431.359 248.484C428.32 247.27 425.21 246.686 422.124 246.686C412.353 246.686 403.118 252.524 399.238 262.12C394.142 274.752 400.243 289.112 412.89 294.202C415.929 295.416 419.039 296 422.124 296C431.896 296 441.13 290.163 445.011 280.566C450.107 267.934 444.006 253.574 431.359 248.484ZM410.927 251.309L419.6 268.424L404.1 257.053C405.971 254.695 408.308 252.757 410.927 251.309ZM400.781 262.751C401.412 261.186 402.254 259.762 403.165 258.408L418.618 269.755L399.612 266.58C399.892 265.272 400.266 263.988 400.781 262.727V262.751ZM399.331 268.238L418.337 271.413L399.869 277.18C399.098 274.238 398.911 271.226 399.331 268.238ZM400.921 280.333C400.711 279.819 400.524 279.282 400.337 278.768L418.828 273.001L404.872 286.567C403.259 284.746 401.926 282.644 400.945 280.356L400.921 280.333ZM411.418 291.704C409.407 290.653 407.584 289.322 405.994 287.781L419.202 274.939L411.418 291.704ZM421.073 294.296C418.478 294.179 415.929 293.642 413.475 292.661C413.288 292.591 413.101 292.498 412.914 292.404L421.049 274.869V294.272L421.073 294.296ZM421.073 267.654L412.376 250.492C415.065 249.255 417.987 248.554 421.073 248.414V267.654ZM432.27 250.749C434.327 251.753 436.174 253.061 437.787 254.555L424.532 267.444L432.294 250.749H432.27ZM422.732 248.367C425.467 248.437 428.132 248.975 430.704 250.025H430.751L422.732 267.327V248.367ZM422.732 294.272V274.635L431.639 292.241C428.881 293.502 425.865 294.202 422.732 294.272ZM433.135 291.447L424.228 273.865L440.148 285.563C438.231 288.015 435.823 289.976 433.135 291.447ZM443.445 279.912C442.813 281.453 442.019 282.854 441.107 284.185L425.234 272.534L444.684 275.78C444.403 277.18 444.006 278.558 443.468 279.936L443.445 279.912ZM444.917 274.098L425.491 270.853L444.193 265.015C445.034 267.934 445.291 271.016 444.894 274.098H444.917ZM425 269.265L438.956 255.699C441.037 257.941 442.626 260.579 443.678 263.428L425 269.265Z" fill="url(#paint41_linear_236_894)"/>
<path d="M480.755 248.484C477.716 247.27 474.607 246.686 471.521 246.686V248.344C474.466 248.344 477.365 248.904 480.124 250.025C491.883 254.765 497.61 268.191 492.841 279.936C489.311 288.668 480.919 294.319 471.498 294.319C468.552 294.319 465.653 293.758 462.895 292.638C457.191 290.349 452.726 285.96 450.318 280.309C447.91 274.659 447.863 268.401 450.154 262.727C453.684 253.995 462.076 248.344 471.498 248.344V246.686C461.726 246.686 452.492 252.524 448.611 262.12C443.515 274.752 449.616 289.112 462.264 294.202C465.303 295.416 468.412 296 471.498 296C481.269 296 490.503 290.163 494.384 280.566C499.48 267.934 493.379 253.574 480.732 248.484H480.755Z" fill="url(#paint42_linear_236_894)"/>
<path d="M530.129 248.484C527.09 247.27 523.98 246.686 520.894 246.686V248.344C523.84 248.344 526.739 248.904 529.497 250.025C541.256 254.765 546.984 268.191 542.215 279.936C538.685 288.668 530.292 294.319 520.871 294.319C517.925 294.319 515.027 293.758 512.268 292.638C506.564 290.349 502.099 285.96 499.691 280.309C497.283 274.659 497.236 268.401 499.527 262.727C503.057 253.995 511.45 248.344 520.871 248.344V246.686C511.099 246.686 501.865 252.524 497.985 262.12C492.888 274.752 498.99 289.112 511.637 294.202C514.676 295.416 517.785 296 520.871 296C530.643 296 539.877 290.163 543.758 280.566C548.854 267.934 542.752 253.574 530.105 248.484H530.129Z" fill="url(#paint43_linear_236_894)"/>
<path d="M480.755 198.283C477.716 197.069 474.607 196.485 471.521 196.485V198.143C474.466 198.143 477.365 198.703 480.124 199.824C491.883 204.564 497.61 217.99 492.841 229.735C489.311 238.467 480.919 244.118 471.498 244.118C468.552 244.118 465.653 243.557 462.895 242.437C457.191 240.148 452.726 235.759 450.318 230.108C447.91 224.458 447.863 218.2 450.154 212.526C453.684 203.794 462.076 198.143 471.498 198.143V196.485C461.726 196.485 452.492 202.323 448.611 211.919C443.515 224.551 449.616 238.911 462.264 244.001C465.303 245.215 468.412 245.799 471.498 245.799C481.269 245.799 490.503 239.962 494.384 230.365C499.48 217.733 493.379 203.373 480.732 198.283H480.755Z" fill="url(#paint44_linear_236_894)"/>
<path d="M455.508 187.146C455.251 187.472 455.134 187.869 455.181 188.196C455.227 188.406 455.321 188.57 455.461 188.687H455.508C455.508 188.687 455.742 188.827 455.882 188.827C455.929 188.827 455.952 188.827 455.999 188.827H456.046C456.373 188.757 456.723 188.523 456.957 188.196L477.272 159.617L477.342 159.5L476.828 159.126L455.508 187.122V187.146Z" fill="url(#paint45_linear_236_894)"/>
<path d="M488.797 150.252L488.307 149.855L456.911 191.183C456.63 191.557 456.49 192.001 456.536 192.398C456.583 192.654 456.7 192.841 456.84 192.935H456.887C457.004 193.075 457.168 193.121 457.332 193.121C457.378 193.121 457.425 193.121 457.472 193.121H457.518C457.892 193.075 458.267 192.794 458.547 192.421L488.751 150.392L488.821 150.299L488.797 150.252Z" fill="url(#paint46_linear_236_894)"/>
<path d="M460.604 192.258C460.651 192.468 460.744 192.631 460.908 192.771C461.048 192.865 461.188 192.888 461.329 192.888C461.352 192.888 461.399 192.888 461.422 192.888H461.469C461.796 192.841 462.123 192.585 462.381 192.258L482.859 163.468L482.929 163.351L482.415 162.978L460.955 191.184C460.697 191.51 460.581 191.907 460.627 192.258H460.604Z" fill="url(#paint47_linear_236_894)"/>
<path d="M455.485 182.124C455.251 182.428 455.134 182.778 455.181 183.082C455.181 183.268 455.297 183.432 455.461 183.572C455.578 183.642 455.718 183.689 455.859 183.689C455.882 183.689 455.905 183.689 455.952 183.689H455.999C456.326 183.619 456.63 183.408 456.84 183.105L469.674 164.822L469.745 164.729L469.254 164.332L455.531 182.148L455.485 182.124Z" fill="url(#paint48_linear_236_894)"/>
<path d="M579.526 248.484C576.487 247.27 573.377 246.686 570.291 246.686C560.52 246.686 551.285 252.524 547.405 262.12C542.308 274.752 548.41 289.112 561.057 294.202C564.096 295.416 567.206 296 570.291 296C580.063 296 589.297 290.163 593.178 280.566C598.274 267.934 592.173 253.574 579.526 248.484ZM570.291 248.344C572.536 248.344 574.733 248.671 576.861 249.301C573.377 257.941 565.008 263.241 556.171 263.241C553.88 263.241 551.543 262.867 549.252 262.097C552.922 253.714 561.081 248.321 570.291 248.321V248.344ZM560.216 291.984C555.213 289.556 551.309 285.493 549.112 280.333C547.031 275.429 546.727 270.106 548.153 265.062C558.416 269.709 563.582 281.29 560.216 291.984ZM560.894 275.663C558.696 270.666 554.932 266.65 550.163 264.128C552.127 264.642 554.138 264.899 556.195 264.899C565.125 264.899 573.377 259.832 577.468 252.057C574.616 262.821 579.642 274.215 589.508 279.375C587.52 278.838 585.487 278.581 583.406 278.581C574.476 278.581 566.224 283.648 562.133 291.447C563.535 286.217 563.114 280.683 560.894 275.639V275.663ZM570.291 294.319C567.883 294.319 565.522 293.922 563.231 293.175C566.948 285.166 574.943 280.263 583.43 280.263C585.907 280.263 588.409 280.706 590.864 281.57C586.983 289.345 579.151 294.319 570.315 294.319H570.291ZM592.056 278.722C581.022 274.122 575.551 261.606 579.736 250.399C590.536 255.255 595.843 267.561 592.056 278.722Z" fill="url(#paint49_linear_236_894)"/>
<path d="M33.9426 1.7979C30.9036 0.583733 27.7942 0 24.7084 0V1.6578C27.6539 1.6578 30.5529 2.21818 33.3114 3.33895C45.0703 8.07886 50.7976 21.5047 46.0286 33.2494C42.4986 41.982 34.1061 47.6326 24.685 47.6326C21.7394 47.6326 18.8408 47.0722 16.0823 45.9514C10.3782 43.6632 5.91306 39.2735 3.50518 33.623C1.09731 27.9725 1.05039 21.7149 3.34138 16.041C6.87137 7.30833 15.2639 1.6578 24.685 1.6578V0C14.9132 0 5.67933 5.83733 1.79867 15.4339C-3.29761 28.0659 2.80382 42.4257 15.451 47.5158C18.4901 48.73 21.5992 49.3137 24.685 49.3137C34.4567 49.3137 43.6909 43.4764 47.5716 33.8798C52.6679 21.2479 46.5664 6.88804 33.9192 1.7979H33.9426Z" fill="url(#paint50_linear_236_894)"/>
<path d="M132.712 1.7979C129.673 0.583733 126.564 0 123.478 0V1.6578C126.424 1.6578 129.323 2.21818 132.081 3.33895C143.84 8.07886 149.567 21.5047 144.798 33.2494C141.268 41.982 132.876 47.6326 123.455 47.6326C120.509 47.6326 117.61 47.0722 114.852 45.9514C109.148 43.6632 104.683 39.2735 102.275 33.623C99.8669 27.9725 99.82 21.7149 102.111 16.041C105.641 7.30833 114.034 1.6578 123.455 1.6578V0C113.683 0 104.449 5.83733 100.568 15.4339C95.472 28.0659 101.573 42.4257 114.221 47.5158C117.073 48.6599 119.995 49.2203 122.894 49.2904C122.449 49.5472 122.122 49.9909 122.122 50.5512V67.4328L114.501 52.3725C114.127 51.6487 113.262 51.3685 112.538 51.7187C111.813 52.0923 111.532 52.9562 111.883 53.68L119.504 68.7403L105.898 58.7468C105.244 58.2799 104.332 58.42 103.841 59.0504C103.35 59.6808 103.514 60.6148 104.145 61.1051L117.751 71.0986L101.083 68.3201C100.288 68.18 99.5397 68.717 99.3994 69.5109C99.2592 70.3047 99.7966 71.0519 100.591 71.192L117.26 73.9706L101.129 79.014C100.358 79.2475 99.937 80.0648 100.171 80.8353C100.405 81.6058 101.223 82.0261 101.994 81.7926L118.125 76.7492L106.015 88.5172C105.431 89.0776 105.431 90.0116 105.992 90.5953C106.553 91.179 107.488 91.179 108.072 90.6186L118.849 80.1348L112.514 93.7708C112.163 94.4946 112.514 95.3819 113.215 95.7088C113.94 96.059 114.829 95.7088 115.156 95.0083L122.075 80.1115V96.923C122.075 97.7402 122.73 98.394 123.548 98.394C124.366 98.394 125.021 97.7402 125.021 96.923V79.6678L132.829 95.0784C133.203 95.8022 134.068 96.0824 134.793 95.7321C135.517 95.3586 135.798 94.4946 135.447 93.7708L127.639 78.3603L141.572 88.5872C142.227 89.0542 143.138 88.9141 143.629 88.2837C144.097 87.6299 143.98 86.7193 143.325 86.229L129.393 76.002L146.435 78.8506C147.23 78.9907 147.978 78.4537 148.118 77.6598C148.258 76.8659 147.72 76.1187 146.926 75.9786L129.883 73.13L146.388 67.9698C147.159 67.7363 147.58 66.9191 147.346 66.1486C147.113 65.378 146.295 64.9578 145.523 65.1913L129.018 70.3514L141.409 58.3266C141.993 57.7662 141.993 56.8322 141.432 56.2485C140.871 55.6647 139.936 55.6647 139.351 56.2251L128.2 67.0358L134.746 52.9562C135.097 52.2324 134.746 51.3451 134.045 51.0182C133.32 50.668 132.432 51.0182 132.104 51.7187L125.068 66.8958V50.5746C125.068 50.0142 124.74 49.5472 124.296 49.3137C133.764 48.9868 142.601 43.2429 146.365 33.9032C151.461 21.2712 145.359 6.91139 132.712 1.82125V1.7979Z" fill="url(#paint51_linear_236_894)"/>
<path d="M163.641 47.5158C166.68 48.73 169.789 49.3137 172.875 49.3137C182.647 49.3137 191.881 43.4764 195.762 33.8798C200.858 21.2479 194.757 6.88804 182.109 1.7979C179.07 0.583733 175.961 0 172.875 0C163.103 0 153.869 5.83733 149.988 15.4339C144.892 28.0659 150.994 42.4257 163.641 47.5158ZM183.933 44.784L175.026 27.2019L190.946 38.8999C189.029 41.3516 186.621 43.313 183.933 44.784ZM194.242 33.2494C193.611 34.7905 192.816 36.1914 191.904 37.5223L176.031 25.871L195.481 29.1166C195.201 30.5175 194.803 31.9185 194.242 33.2728V33.2494ZM195.738 27.4354L176.311 24.1899L195.037 18.3526C195.878 21.3179 196.136 24.4 195.738 27.4354ZM194.102 15.644C194.265 16.0176 194.382 16.3912 194.523 16.7648L175.821 22.6021L189.8 9.03618C191.577 10.9508 193.05 13.169 194.102 15.6674V15.644ZM183.091 4.03943C185.125 5.04345 186.972 6.32766 188.608 7.84537L175.33 20.7342L183.091 4.03943ZM173.553 1.68115C176.288 1.7512 178.953 2.28823 181.525 3.33895H181.571L173.553 20.6408V1.68115ZM173.553 27.9491L182.46 45.5545C179.701 46.8153 176.686 47.5158 173.553 47.5859V27.9491ZM162.239 44.9708C160.205 43.92 158.381 42.6125 156.791 41.0714L170 28.2527L162.239 44.9708ZM171.87 47.5859C169.275 47.4691 166.727 46.9321 164.272 45.9514C164.085 45.8814 163.898 45.788 163.734 45.6946L171.87 28.1826V47.5859ZM171.87 1.72785V20.9677L163.173 3.80594C165.862 2.56842 168.784 1.86794 171.87 1.72785ZM161.701 4.59981L170.374 21.7149L154.875 10.3437C156.745 7.98546 159.082 6.04747 161.701 4.59981ZM151.555 16.041C152.186 14.4766 153.028 13.0523 153.939 11.698L169.392 23.0458L150.409 19.8703C150.69 18.586 151.041 17.2785 151.555 16.0176V16.041ZM150.129 21.5281L169.135 24.7036L150.69 30.4708C149.942 27.5989 149.731 24.5635 150.152 21.5514L150.129 21.5281ZM169.626 26.2913L155.669 39.8339C153.659 37.5457 152.116 34.9072 151.157 32.0586L169.626 26.2913Z" fill="url(#paint52_linear_236_894)"/>
<path d="M33.9429 51.1347C30.9038 49.9205 27.7945 49.3368 24.7086 49.3368V50.9946C27.6542 50.9946 30.5531 51.555 33.3116 52.6758C39.0157 54.964 43.4808 59.3537 45.8887 65.0042C48.2966 70.6547 48.3432 76.9123 46.0522 82.5862C42.5222 91.3188 34.1297 96.9694 24.7086 96.9694C21.7631 96.9694 18.8644 96.409 16.1059 95.2882C4.34705 90.5483 -1.38057 77.1225 3.38842 65.3778C6.91842 56.6451 15.3109 50.9946 24.732 50.9946V49.3368C14.9603 49.3368 5.72609 55.1741 1.84543 64.7707C-3.25085 77.4027 2.85087 91.7625 15.4981 96.8526C18.5371 98.0668 21.6462 98.6505 24.732 98.6505C34.5038 98.6505 43.738 92.8132 47.6186 83.2166C52.7149 70.5847 46.6132 56.2248 33.966 51.1347H33.9429Z" fill="url(#paint53_linear_236_894)"/>
<path d="M182.109 51.1347C179.07 49.9205 175.96 49.3368 172.874 49.3368V50.9946C175.82 50.9946 178.719 51.555 181.478 52.6758C187.182 54.964 191.647 59.3537 194.055 65.0042C196.462 70.6547 196.509 76.9123 194.218 82.5862C190.688 91.3188 182.296 96.9694 172.874 96.9694C169.929 96.9694 167.03 96.409 164.272 95.2882C152.513 90.5483 146.785 77.1225 151.554 65.3778C155.084 56.6451 163.477 50.9946 172.898 50.9946V49.3368C163.126 49.3368 153.892 55.1741 150.011 64.7707C144.915 77.4027 151.017 91.7625 163.664 96.8526C166.703 98.0668 169.812 98.6505 172.898 98.6505C182.67 98.6505 191.904 92.8132 195.785 83.2166C200.881 70.5847 194.779 56.2248 182.132 51.1347H182.109Z" fill="url(#paint54_linear_236_894)"/>
<path d="M47.5947 132.601C52.6909 119.969 46.5895 105.61 33.9423 100.519C30.9032 99.3052 27.7939 98.7215 24.7081 98.7215C14.9363 98.7215 5.70212 104.559 1.82146 114.155C-3.27482 126.787 2.8269 141.147 15.4741 146.237C18.3495 147.405 21.3184 147.965 24.2406 148.012C14.6559 148.199 5.63198 153.989 1.82146 163.422C-3.27482 176.054 2.8269 190.414 15.4741 195.504C18.5132 196.719 21.6222 197.302 24.7081 197.302C34.4798 197.302 43.714 191.465 47.5947 181.868C52.6909 169.236 46.5895 154.877 33.9423 149.786C31.0669 148.619 28.098 148.059 25.1758 148.012C34.7605 147.825 43.7841 142.034 47.5947 132.601ZM13.5102 103.321L22.1834 120.436L6.68415 109.065C8.55435 106.707 10.8919 104.769 13.5102 103.321ZM3.36445 114.762C3.99564 113.198 4.83728 111.774 5.749 110.419L21.2014 121.767L2.19558 118.592C2.47611 117.284 2.85015 116 3.36445 114.739V114.762ZM1.91506 120.25L20.9209 123.425L2.4527 129.192C1.68124 126.25 1.49427 123.238 1.91506 120.25ZM3.50485 132.344C3.29446 131.831 3.10744 131.294 2.92042 130.78L21.4118 125.013L7.4555 138.579C5.84246 136.757 4.51011 134.656 3.52825 132.368L3.50485 132.344ZM14.0013 143.716C11.9908 142.665 10.1672 141.334 8.57757 139.793L21.7859 126.951L14.0013 143.716ZM23.6562 146.307C21.0613 146.191 18.5132 145.654 16.0585 144.673C15.8715 144.603 15.6845 144.509 15.4975 144.416L23.6328 126.881V146.284L23.6562 146.307ZM23.6562 119.666L14.9599 102.504C17.6483 101.267 20.5704 100.566 23.6562 100.426V119.666ZM33.2877 151.327C45.0465 156.067 50.7739 169.493 46.0049 181.238C42.4749 189.971 34.0824 195.621 24.6613 195.621C21.7157 195.621 18.8171 195.061 16.0585 193.94C10.3544 191.652 5.88933 187.262 3.48145 181.612C1.07358 175.961 1.02666 169.703 3.31765 164.029C6.84764 155.297 15.2402 149.646 24.6613 149.646C27.6068 149.646 30.5057 150.207 33.2643 151.327H33.2877ZM46.0049 131.971C45.3737 133.512 44.5788 134.913 43.6671 136.244L27.794 124.593L47.2439 127.838C46.9634 129.239 46.5659 130.617 46.0283 131.994L46.0049 131.971ZM47.4776 126.157L28.0512 122.911L46.7531 117.074C47.5947 119.993 47.8517 123.075 47.4543 126.157H47.4776ZM46.2386 115.486L27.56 121.324L41.5166 107.758C43.5972 109.999 45.1866 112.638 46.2386 115.486ZM34.8307 102.761C36.8879 103.765 38.7347 105.072 40.3477 106.567L27.0926 119.456L34.8538 102.761H34.8307ZM25.2925 100.379C28.0277 100.449 30.6928 100.986 33.2643 102.037H33.3111L25.2925 119.339V100.379ZM25.2925 146.284V126.647L34.1994 144.253C31.4409 145.513 28.4251 146.214 25.2925 146.284ZM35.6956 143.459L26.7887 125.877L42.7089 137.575C40.7919 140.026 38.384 141.988 35.6956 143.459Z" fill="url(#paint55_linear_236_894)"/>
<path d="M83.3389 100.494C80.2998 99.2801 77.1904 98.6964 74.1046 98.6964V100.354C77.0502 100.354 79.9491 100.915 82.7076 102.035C94.4665 106.775 100.194 120.201 95.4248 131.946C91.8948 140.678 83.5023 146.329 74.0812 146.329C71.1357 146.329 68.237 145.769 65.4785 144.648C59.7744 142.36 55.3093 137.97 52.9014 132.319C50.4935 126.669 50.4466 120.411 52.7376 114.737C56.2676 106.005 64.6601 100.354 74.0812 100.354V98.6964C64.3095 98.6964 55.0756 104.534 51.1949 114.13C46.0986 126.762 52.2001 141.122 64.8472 146.212C67.8863 147.426 70.9954 148.01 74.0812 148.01C83.853 148.01 93.0872 142.173 96.9678 132.576C102.064 119.944 95.9627 105.584 83.3155 100.494H83.3389Z" fill="url(#paint56_linear_236_894)"/>
<path d="M83.3389 50.2933C80.2998 49.0791 77.1904 48.4954 74.1046 48.4954V50.1532C77.0502 50.1532 79.9491 50.7136 82.7076 51.8344C94.4665 56.5743 100.194 70.0001 95.4248 81.7448C91.8948 90.4774 83.5023 96.128 74.0812 96.128C71.1357 96.128 68.237 95.5676 65.4785 94.4468C59.7744 92.1586 55.3093 87.7689 52.9014 82.1184C50.4935 76.4679 50.4466 70.2103 52.7376 64.5364C56.2676 55.8037 64.6601 50.1532 74.0812 50.1532V48.4954C64.3095 48.4954 55.0756 54.3327 51.1949 63.9293C46.0986 76.5613 52.2001 90.9211 64.8472 96.0112C67.8863 97.2254 70.9954 97.8091 74.0812 97.8091C83.853 97.8091 93.0872 91.9718 96.9678 82.3752C102.064 69.7433 95.9627 55.3834 83.3155 50.2933H83.3389Z" fill="url(#paint57_linear_236_894)"/>
<path d="M57.7642 40.2315C57.811 40.4416 57.9045 40.6051 58.0447 40.7218H58.0915C58.0915 40.7218 58.3254 40.8619 58.4656 40.8619C58.5124 40.8619 58.5356 40.8619 58.5824 40.8619H58.6292C58.9564 40.7919 59.3071 40.5584 59.5409 40.2315L79.8558 11.6519L79.926 11.5352L79.4117 11.1616L58.0915 39.1574C57.8344 39.4843 57.7175 39.8812 57.7642 40.2081V40.2315Z" fill="url(#paint58_linear_236_894)"/>
<path d="M59.1205 44.4339C59.1672 44.6907 59.2841 44.8775 59.4244 44.9709H59.4712C59.5881 45.111 59.7519 45.1577 59.9155 45.1577C59.9623 45.1577 60.0089 45.1577 60.0556 45.1577H60.1024C60.4765 45.0877 60.8507 44.8308 61.1312 44.4573L91.3346 2.42851L91.4048 2.33511L90.914 1.93817L59.518 43.2664C59.2375 43.64 59.0971 44.0837 59.1439 44.4806L59.1205 44.4339Z" fill="url(#paint59_linear_236_894)"/>
<path d="M63.1875 44.2701C63.2343 44.4802 63.3278 44.6437 63.4915 44.7838C63.6317 44.8772 63.7721 44.9005 63.9124 44.9005C63.9358 44.9005 63.9826 44.9005 64.006 44.9005H64.0528C64.3801 44.8538 64.7071 44.597 64.9643 44.2701L85.4429 15.4804L85.5131 15.3637L84.9989 14.9901L63.5383 43.196C63.2811 43.5229 63.1642 43.9199 63.211 44.2701H63.1875Z" fill="url(#paint60_linear_236_894)"/>
<path d="M58.4423 35.7011C58.4423 35.7011 58.4889 35.7011 58.5356 35.7011H58.5824C58.9097 35.631 59.2136 35.4209 59.424 35.1174L72.2582 16.8348L72.3284 16.7414L71.8375 16.3445L58.115 34.16C57.8812 34.4636 57.7643 34.8138 57.8111 35.1174C57.8111 35.3041 57.928 35.4676 58.0916 35.6077C58.2085 35.6777 58.3489 35.7244 58.4891 35.7244L58.4423 35.7011Z" fill="url(#paint61_linear_236_894)"/>
<path d="M195.762 132.601C200.858 119.969 194.757 105.61 182.109 100.519C179.07 99.3052 175.961 98.7215 172.875 98.7215C163.103 98.7215 153.869 104.559 149.988 114.155C144.892 126.787 150.994 141.147 163.641 146.237C166.517 147.405 169.485 147.965 172.431 148.012C162.846 148.199 153.822 153.989 150.012 163.422C144.916 176.054 151.017 190.414 163.665 195.504C166.704 196.719 169.813 197.302 172.898 197.302C182.67 197.302 191.904 191.465 195.785 181.868C200.881 169.236 194.78 154.877 182.132 149.786C179.257 148.619 176.288 148.059 173.343 148.012C182.928 147.825 191.951 142.034 195.762 132.601ZM161.677 152.612L170.35 169.727L154.851 158.356C156.721 155.997 159.059 154.059 161.677 152.612ZM151.531 164.053C152.163 162.488 153.004 161.064 153.916 159.71L169.368 171.058L150.386 167.882C150.667 166.598 151.017 165.29 151.531 164.029V164.053ZM150.105 169.54L169.111 172.715L150.667 178.483C149.918 175.611 149.708 172.575 150.129 169.563L150.105 169.54ZM151.134 180.07L169.602 174.303L155.646 187.846C153.635 185.558 152.093 182.919 151.134 180.07ZM162.215 192.983C160.181 191.932 158.358 190.624 156.791 189.083L170 176.265L162.239 193.006L162.215 192.983ZM171.847 195.598C169.252 195.481 166.704 194.944 164.249 193.963C164.062 193.893 163.875 193.8 163.711 193.706L171.847 176.194V195.598ZM171.847 168.956L163.15 151.794C165.838 150.557 168.761 149.856 171.847 149.716V168.956ZM183.909 192.772L175.003 175.19L190.922 186.888C189.005 189.34 186.598 191.301 183.909 192.772ZM194.219 181.238C193.587 182.779 192.793 184.18 191.881 185.511L176.008 173.86L195.458 177.105C195.177 178.506 194.78 179.907 194.219 181.261V181.238ZM195.715 175.424L176.288 172.178L195.013 166.341C195.855 169.306 196.112 172.389 195.715 175.424ZM194.079 163.633C194.242 164.006 194.359 164.38 194.499 164.753L175.797 170.591L189.777 157.025C191.554 158.939 193.027 161.158 194.079 163.656V163.633ZM183.068 152.028C185.101 153.032 186.948 154.316 188.585 155.834L175.306 168.723L183.068 152.028ZM173.53 149.67C176.265 149.74 178.93 150.277 181.501 151.327H181.548L173.53 168.629V149.67ZM173.53 175.938L182.436 193.543C179.678 194.804 176.662 195.504 173.53 195.574V175.938ZM182.343 102.434C193.143 107.291 198.45 119.596 194.663 130.757C183.629 126.157 178.158 113.642 182.343 102.434ZM172.898 100.379C175.143 100.379 177.34 100.706 179.468 101.337C175.984 109.976 167.615 115.276 158.778 115.276C156.487 115.276 154.15 114.903 151.859 114.132C155.529 105.75 163.688 100.356 172.898 100.356V100.379ZM162.823 144.019C157.82 141.591 153.916 137.528 151.719 132.368C149.638 127.464 149.334 122.141 150.76 117.097C161.023 121.744 166.189 133.325 162.823 144.019ZM163.501 127.698C161.303 122.701 157.54 118.685 152.771 116.163C154.734 116.677 156.745 116.934 158.802 116.934C167.732 116.934 175.984 111.867 180.075 104.092C177.223 114.856 182.249 126.25 192.115 131.411C190.128 130.873 188.094 130.617 186.013 130.617C177.083 130.617 168.831 135.683 164.74 143.482C166.142 138.252 165.722 132.718 163.501 127.675V127.698ZM172.898 146.377C170.491 146.377 168.129 145.98 165.838 145.233C169.555 137.224 177.551 132.321 186.037 132.321C188.515 132.321 191.016 132.765 193.471 133.629C189.59 141.404 181.759 146.377 172.922 146.377H172.898Z" fill="url(#paint62_linear_236_894)"/>
<path d="M132.712 149.786C129.837 148.619 126.868 148.059 123.946 148.012C133.53 147.825 142.554 142.034 146.365 132.601C151.461 119.969 145.359 105.61 132.712 100.519C129.673 99.3052 126.564 98.7215 123.478 98.7215V100.379C126.424 100.379 129.323 100.94 132.081 102.06C143.84 106.8 149.567 120.226 144.798 131.971C141.268 140.704 132.876 146.354 123.455 146.354C120.509 146.354 117.61 145.794 114.852 144.673C109.148 142.385 104.683 137.995 102.275 132.344C99.8669 126.694 99.82 120.436 102.111 114.762C105.641 106.03 114.034 100.379 123.455 100.379V98.7215C113.683 98.7215 104.449 104.559 100.568 114.155C95.472 126.787 101.573 141.147 114.221 146.237C117.096 147.405 120.065 147.965 123.011 148.012C113.426 148.199 104.402 153.989 100.591 163.422C95.4951 176.054 101.597 190.414 114.244 195.504C117.096 196.648 120.018 197.209 122.917 197.279C122.473 197.536 122.146 197.979 122.146 198.54V215.421L114.525 200.361C114.151 199.637 113.286 199.357 112.561 199.707C111.836 200.081 111.556 200.945 111.906 201.669L119.527 216.729L105.922 206.735C105.267 206.268 104.355 206.408 103.864 207.039C103.373 207.669 103.537 208.603 104.168 209.094L117.774 219.087L101.106 216.309C100.311 216.168 99.5628 216.706 99.4226 217.499C99.2823 218.293 99.82 219.04 100.615 219.181L117.283 221.959L101.153 227.003C100.381 227.236 99.9604 228.053 100.194 228.824C100.428 229.594 101.246 230.015 102.018 229.781L118.148 224.738L106.039 236.506C105.454 237.066 105.454 238 106.015 238.584C106.576 239.168 107.511 239.168 108.096 238.607L118.873 228.123L112.538 241.759C112.187 242.483 112.537 243.37 113.239 243.697C113.963 244.048 114.852 243.697 115.179 242.997L122.099 228.1V244.911C122.099 245.729 122.753 246.382 123.572 246.382C124.39 246.382 125.044 245.729 125.044 244.911V227.656L132.852 243.067C133.226 243.791 134.091 244.071 134.816 243.721C135.541 243.347 135.821 242.483 135.471 241.759L127.663 226.349L141.596 236.576C142.25 237.043 143.162 236.903 143.653 236.272C144.12 235.618 144.003 234.708 143.349 234.217L129.416 223.99L146.458 226.839C147.253 226.979 148.001 226.442 148.141 225.648C148.282 224.854 147.744 224.107 146.949 223.967L129.907 221.119L146.411 215.958C147.183 215.725 147.603 214.908 147.37 214.137C147.136 213.367 146.318 212.946 145.546 213.18L129.042 218.34L141.432 206.315C142.016 205.755 142.016 204.821 141.455 204.237C140.894 203.653 139.959 203.653 139.375 204.214L128.224 215.024L134.77 200.945C135.12 200.221 134.769 199.334 134.068 199.007C133.343 198.657 132.455 199.007 132.128 199.707L125.091 214.884V198.563C125.091 198.003 124.764 197.536 124.32 197.302C133.787 196.975 142.624 191.231 146.388 181.892C151.484 169.26 145.383 154.9 132.735 149.81L132.712 149.786ZM144.822 181.261C141.292 189.994 132.899 195.644 123.478 195.644C120.532 195.644 117.634 195.084 114.875 193.963C109.171 191.675 104.706 187.285 102.298 181.635C99.8904 175.984 99.8434 169.727 102.134 164.053C105.664 155.32 114.057 149.67 123.478 149.67C126.424 149.67 129.323 150.23 132.081 151.351C143.84 156.091 149.567 169.517 144.798 181.261H144.822Z" fill="url(#paint63_linear_236_894)"/>
<path d="M33.9429 199.122C30.9038 197.908 27.7945 197.324 24.7086 197.324V198.982C27.6542 198.982 30.5531 199.543 33.3116 200.663C39.0157 202.952 43.4808 207.341 45.8887 212.992C48.2966 218.642 48.3432 224.9 46.0522 230.574C42.5222 239.306 34.1297 244.957 24.7086 244.957C21.7631 244.957 18.8644 244.397 16.1059 243.276C4.34705 238.536 -1.38057 225.11 3.38842 213.365C6.91842 204.633 15.3109 198.982 24.732 198.982V197.324C14.9603 197.324 5.72609 203.162 1.84543 212.758C-3.25085 225.39 2.85087 239.75 15.4981 244.84C18.5371 246.054 21.6462 246.638 24.732 246.638C34.5038 246.638 43.738 240.801 47.6186 231.204C52.7149 218.572 46.6132 204.212 33.966 199.122H33.9429Z" fill="url(#paint64_linear_236_894)"/>
<path d="M182.109 199.122C179.07 197.908 175.96 197.324 172.874 197.324V198.982C175.82 198.982 178.719 199.543 181.478 200.663C187.182 202.952 191.647 207.341 194.055 212.992C196.462 218.642 196.509 224.9 194.218 230.574C190.688 239.306 182.296 244.957 172.874 244.957C169.929 244.957 167.03 244.397 164.272 243.276C152.513 238.536 146.785 225.11 151.554 213.365C155.084 204.633 163.477 198.982 172.898 198.982V197.324C163.126 197.324 153.892 203.162 150.011 212.758C144.915 225.39 151.017 239.75 163.664 244.84C166.703 246.054 169.812 246.638 172.898 246.638C182.67 246.638 191.904 240.801 195.785 231.204C200.881 218.572 194.779 204.212 182.132 199.122H182.109Z" fill="url(#paint65_linear_236_894)"/>
<path d="M33.9423 248.484C30.9032 247.27 27.7939 246.686 24.7081 246.686C14.9363 246.686 5.70212 252.524 1.82146 262.12C-3.27482 274.752 2.8269 289.112 15.4741 294.202C18.5132 295.416 21.6222 296 24.7081 296C34.4798 296 43.714 290.163 47.5947 280.566C52.6909 267.934 46.5895 253.574 33.9423 248.484ZM13.5102 251.309L22.1834 268.424L6.68415 257.053C8.55435 254.695 10.8919 252.757 13.5102 251.309ZM3.36445 262.751C3.99564 261.186 4.83728 259.762 5.749 258.408L21.2014 269.755L2.19558 266.58C2.47611 265.272 2.85015 263.988 3.36445 262.727V262.751ZM1.91506 268.238L20.9209 271.413L2.4527 277.18C1.68124 274.238 1.49427 271.226 1.91506 268.238ZM3.50485 280.333C3.29446 279.819 3.10744 279.282 2.92042 278.768L21.4118 273.001L7.4555 286.567C5.84246 284.746 4.51011 282.644 3.52825 280.356L3.50485 280.333ZM14.0013 291.704C11.9908 290.653 10.1672 289.322 8.57757 287.781L21.7859 274.939L14.0013 291.704ZM23.6562 294.296C21.0613 294.179 18.5132 293.642 16.0585 292.661C15.8715 292.591 15.6845 292.498 15.4975 292.404L23.6328 274.869V294.272L23.6562 294.296ZM23.6562 267.654L14.9599 250.492C17.6483 249.255 20.5704 248.554 23.6562 248.414V267.654ZM34.8538 250.749C36.911 251.753 38.7581 253.061 40.3711 254.555L27.116 267.444L34.8772 250.749H34.8538ZM25.3159 248.367C28.0511 248.437 30.7162 248.975 33.2877 250.025H33.3345L25.3159 267.327V248.367ZM25.3159 294.272V274.635L34.2228 292.241C31.4643 293.502 28.4485 294.202 25.3159 294.272ZM35.7187 291.447L26.8121 273.865L42.732 285.563C40.815 288.015 38.4071 289.976 35.7187 291.447ZM46.0283 279.912C45.3971 281.453 44.6022 282.854 43.6905 284.185L27.8174 272.534L47.2673 275.78C46.9868 277.18 46.5893 278.558 46.0517 279.936L46.0283 279.912ZM47.5011 274.098L28.0746 270.853L46.7765 265.015C47.6181 267.934 47.8751 271.016 47.4776 274.098H47.5011ZM27.5834 269.265L41.54 255.699C43.6206 257.941 45.21 260.579 46.262 263.428L27.5834 269.265Z" fill="url(#paint66_linear_236_894)"/>
<path d="M83.3389 248.484C80.2998 247.27 77.1904 246.686 74.1046 246.686V248.344C77.0502 248.344 79.9491 248.904 82.7076 250.025C94.4665 254.765 100.194 268.191 95.4248 279.936C91.8948 288.668 83.5023 294.319 74.0812 294.319C71.1357 294.319 68.237 293.758 65.4785 292.638C59.7744 290.349 55.3093 285.96 52.9014 280.309C50.4935 274.659 50.4466 268.401 52.7376 262.727C56.2676 253.995 64.6601 248.344 74.0812 248.344V246.686C64.3095 246.686 55.0756 252.524 51.1949 262.12C46.0986 274.752 52.2001 289.112 64.8472 294.202C67.8863 295.416 70.9954 296 74.0812 296C83.853 296 93.0872 290.163 96.9678 280.566C102.064 267.934 95.9627 253.574 83.3155 248.484H83.3389Z" fill="url(#paint67_linear_236_894)"/>
<path d="M132.712 248.484C129.673 247.27 126.564 246.686 123.478 246.686V248.344C126.424 248.344 129.323 248.904 132.081 250.025C143.84 254.765 149.567 268.191 144.798 279.936C141.268 288.668 132.876 294.319 123.455 294.319C120.509 294.319 117.61 293.758 114.852 292.638C109.148 290.349 104.683 285.96 102.275 280.309C99.8669 274.659 99.82 268.401 102.111 262.727C105.641 253.995 114.034 248.344 123.455 248.344V246.686C113.683 246.686 104.449 252.524 100.568 262.12C95.472 274.752 101.573 289.112 114.221 294.202C117.26 295.416 120.369 296 123.455 296C133.226 296 142.461 290.163 146.341 280.566C151.438 267.934 145.336 253.574 132.689 248.484H132.712Z" fill="url(#paint68_linear_236_894)"/>
<path d="M83.3389 198.283C80.2998 197.069 77.1904 196.485 74.1046 196.485V198.143C77.0502 198.143 79.9491 198.703 82.7076 199.824C94.4665 204.564 100.194 217.99 95.4248 229.735C91.8948 238.467 83.5023 244.118 74.0812 244.118C71.1357 244.118 68.237 243.557 65.4785 242.437C59.7744 240.148 55.3093 235.759 52.9014 230.108C50.4935 224.458 50.4466 218.2 52.7376 212.526C56.2676 203.794 64.6601 198.143 74.0812 198.143V196.485C64.3095 196.485 55.0756 202.323 51.1949 211.919C46.0986 224.551 52.2001 238.911 64.8472 244.001C67.8863 245.215 70.9954 245.799 74.0812 245.799C83.853 245.799 93.0872 239.962 96.9678 230.365C102.064 217.733 95.9627 203.373 83.3155 198.283H83.3389Z" fill="url(#paint69_linear_236_894)"/>
<path d="M58.0915 187.146C57.8344 187.472 57.7175 187.869 57.7642 188.196C57.811 188.406 57.9045 188.57 58.0447 188.687H58.0915C58.0915 188.687 58.3254 188.827 58.4656 188.827C58.5124 188.827 58.5356 188.827 58.5824 188.827H58.6292C58.9564 188.757 59.3071 188.523 59.5409 188.196L79.8558 159.617L79.926 159.5L79.4117 159.126L58.0915 187.122V187.146Z" fill="url(#paint70_linear_236_894)"/>
<path d="M91.3812 150.252L90.8903 149.855L59.4943 191.183C59.2138 191.557 59.0734 192.001 59.1202 192.398C59.167 192.654 59.2838 192.841 59.4241 192.935H59.4709C59.5878 193.075 59.7516 193.121 59.9152 193.121C59.962 193.121 60.0086 193.121 60.0553 193.121H60.1021C60.4762 193.075 60.8504 192.794 61.1309 192.421L91.3344 150.392L91.4046 150.299L91.3812 150.252Z" fill="url(#paint71_linear_236_894)"/>
<path d="M63.1875 192.258C63.2343 192.468 63.3278 192.631 63.4915 192.771C63.6317 192.865 63.7721 192.888 63.9124 192.888C63.9358 192.888 63.9826 192.888 64.006 192.888H64.0528C64.3801 192.841 64.7071 192.585 64.9643 192.258L85.4429 163.468L85.5131 163.351L84.9989 162.978L63.5383 191.184C63.2811 191.51 63.1642 191.907 63.211 192.258H63.1875Z" fill="url(#paint72_linear_236_894)"/>
<path d="M58.0682 182.124C57.8344 182.428 57.7175 182.778 57.7643 183.082C57.7643 183.268 57.8812 183.432 58.0448 183.572C58.1617 183.642 58.3021 183.689 58.4423 183.689C58.4657 183.689 58.4889 183.689 58.5356 183.689H58.5824C58.9097 183.619 59.2136 183.408 59.424 183.105L72.2582 164.822L72.3284 164.729L71.8375 164.332L58.115 182.148L58.0682 182.124Z" fill="url(#paint73_linear_236_894)"/>
<path d="M182.109 248.484C179.07 247.27 175.961 246.686 172.875 246.686C163.103 246.686 153.869 252.524 149.988 262.12C144.892 274.752 150.994 289.112 163.641 294.202C166.68 295.416 169.789 296 172.875 296C182.647 296 191.881 290.163 195.762 280.566C200.858 267.934 194.757 253.574 182.109 248.484ZM172.875 248.344C175.119 248.344 177.317 248.671 179.444 249.301C175.961 257.941 167.592 263.241 158.755 263.241C156.464 263.241 154.126 262.867 151.835 262.097C155.506 253.714 163.664 248.321 172.875 248.321V248.344ZM162.8 291.984C157.797 289.556 153.893 285.493 151.695 280.333C149.615 275.429 149.311 270.106 150.737 265.062C160.999 269.709 166.166 281.29 162.8 291.984ZM163.477 275.663C161.28 270.666 157.516 266.65 152.747 264.128C154.711 264.642 156.721 264.899 158.778 264.899C167.709 264.899 175.961 259.832 180.052 252.057C177.2 262.821 182.226 274.215 192.091 279.375C190.104 278.838 188.07 278.581 185.99 278.581C177.06 278.581 168.807 283.648 164.716 291.447C166.119 286.217 165.698 280.683 163.477 275.639V275.663ZM172.875 294.319C170.467 294.319 168.106 293.922 165.815 293.175C169.532 285.166 177.527 280.263 186.013 280.263C188.491 280.263 190.993 280.706 193.447 281.57C189.567 289.345 181.735 294.319 172.898 294.319H172.875ZM194.64 278.722C183.605 274.122 178.135 261.606 182.32 250.399C193.12 255.255 198.427 267.561 194.64 278.722Z" fill="url(#paint74_linear_236_894)"/>
<defs>
<linearGradient id="paint0_linear_236_894" x1="595" y1="0" x2="0" y2="0" gradientUnits="userSpaceOnUse">
<stop stop-color="white"/>
<stop offset="1" stop-color="white" stop-opacity="0"/>
</linearGradient>
<linearGradient id="paint1_linear_236_894" x1="595" y1="0" x2="0" y2="0" gradientUnits="userSpaceOnUse">
<stop stop-color="white"/>
<stop offset="1" stop-color="white" stop-opacity="0"/>
</linearGradient>
<linearGradient id="paint2_linear_236_894" x1="595" y1="0" x2="0" y2="0" gradientUnits="userSpaceOnUse">
<stop stop-color="white"/>
<stop offset="1" stop-color="white" stop-opacity="0"/>
</linearGradient>
<linearGradient id="paint3_linear_236_894" x1="595" y1="0" x2="0" y2="0" gradientUnits="userSpaceOnUse">
<stop stop-color="white"/>
<stop offset="1" stop-color="white" stop-opacity="0"/>
</linearGradient>
<linearGradient id="paint4_linear_236_894" x1="595" y1="0" x2="0" y2="0" gradientUnits="userSpaceOnUse">
<stop stop-color="white"/>
<stop offset="1" stop-color="white" stop-opacity="0"/>
</linearGradient>
<linearGradient id="paint5_linear_236_894" x1="595" y1="0" x2="0" y2="0" gradientUnits="userSpaceOnUse">
<stop stop-color="white"/>
<stop offset="1" stop-color="white" stop-opacity="0"/>
</linearGradient>
<linearGradient id="paint6_linear_236_894" x1="595" y1="0" x2="0" y2="0" gradientUnits="userSpaceOnUse">
<stop stop-color="white"/>
<stop offset="1" stop-color="white" stop-opacity="0"/>
</linearGradient>
<linearGradient id="paint7_linear_236_894" x1="595" y1="0" x2="0" y2="0" gradientUnits="userSpaceOnUse">
<stop stop-color="white"/>
<stop offset="1" stop-color="white" stop-opacity="0"/>
</linearGradient>
<linearGradient id="paint8_linear_236_894" x1="595" y1="0" x2="0" y2="0" gradientUnits="userSpaceOnUse">
<stop stop-color="white"/>
<stop offset="1" stop-color="white" stop-opacity="0"/>
</linearGradient>
<linearGradient id="paint9_linear_236_894" x1="595" y1="0" x2="0" y2="0" gradientUnits="userSpaceOnUse">
<stop stop-color="white"/>
<stop offset="1" stop-color="white" stop-opacity="0"/>
</linearGradient>
<linearGradient id="paint10_linear_236_894" x1="595" y1="0" x2="0" y2="0" gradientUnits="userSpaceOnUse">
<stop stop-color="white"/>
<stop offset="1" stop-color="white" stop-opacity="0"/>
</linearGradient>
<linearGradient id="paint11_linear_236_894" x1="595" y1="0" x2="0" y2="0" gradientUnits="userSpaceOnUse">
<stop stop-color="white"/>
<stop offset="1" stop-color="white" stop-opacity="0"/>
</linearGradient>
<linearGradient id="paint12_linear_236_894" x1="595" y1="0" x2="0" y2="0" gradientUnits="userSpaceOnUse">
<stop stop-color="white"/>
<stop offset="1" stop-color="white" stop-opacity="0"/>
</linearGradient>
<linearGradient id="paint13_linear_236_894" x1="595" y1="0" x2="0" y2="0" gradientUnits="userSpaceOnUse">
<stop stop-color="white"/>
<stop offset="1" stop-color="white" stop-opacity="0"/>
</linearGradient>
<linearGradient id="paint14_linear_236_894" x1="595" y1="0" x2="0" y2="0" gradientUnits="userSpaceOnUse">
<stop stop-color="white"/>
<stop offset="1" stop-color="white" stop-opacity="0"/>
</linearGradient>
<linearGradient id="paint15_linear_236_894" x1="595" y1="0" x2="0" y2="0" gradientUnits="userSpaceOnUse">
<stop stop-color="white"/>
<stop offset="1" stop-color="white" stop-opacity="0"/>
</linearGradient>
<linearGradient id="paint16_linear_236_894" x1="595" y1="0" x2="0" y2="0" gradientUnits="userSpaceOnUse">
<stop stop-color="white"/>
<stop offset="1" stop-color="white" stop-opacity="0"/>
</linearGradient>
<linearGradient id="paint17_linear_236_894" x1="595" y1="0" x2="0" y2="0" gradientUnits="userSpaceOnUse">
<stop stop-color="white"/>
<stop offset="1" stop-color="white" stop-opacity="0"/>
</linearGradient>
<linearGradient id="paint18_linear_236_894" x1="595" y1="0" x2="0" y2="0" gradientUnits="userSpaceOnUse">
<stop stop-color="white"/>
<stop offset="1" stop-color="white" stop-opacity="0"/>
</linearGradient>
<linearGradient id="paint19_linear_236_894" x1="595" y1="0" x2="0" y2="0" gradientUnits="userSpaceOnUse">
<stop stop-color="white"/>
<stop offset="1" stop-color="white" stop-opacity="0"/>
</linearGradient>
<linearGradient id="paint20_linear_236_894" x1="595" y1="0" x2="0" y2="0" gradientUnits="userSpaceOnUse">
<stop stop-color="white"/>
<stop offset="1" stop-color="white" stop-opacity="0"/>
</linearGradient>
<linearGradient id="paint21_linear_236_894" x1="595" y1="0" x2="0" y2="0" gradientUnits="userSpaceOnUse">
<stop stop-color="white"/>
<stop offset="1" stop-color="white" stop-opacity="0"/>
</linearGradient>
<linearGradient id="paint22_linear_236_894" x1="595" y1="0" x2="0" y2="0" gradientUnits="userSpaceOnUse">
<stop stop-color="white"/>
<stop offset="1" stop-color="white" stop-opacity="0"/>
</linearGradient>
<linearGradient id="paint23_linear_236_894" x1="595" y1="0" x2="0" y2="0" gradientUnits="userSpaceOnUse">
<stop stop-color="white"/>
<stop offset="1" stop-color="white" stop-opacity="0"/>
</linearGradient>
<linearGradient id="paint24_linear_236_894" x1="595" y1="0" x2="0" y2="0" gradientUnits="userSpaceOnUse">
<stop stop-color="white"/>
<stop offset="1" stop-color="white" stop-opacity="0"/>
</linearGradient>
<linearGradient id="paint25_linear_236_894" x1="595" y1="0" x2="0" y2="0" gradientUnits="userSpaceOnUse">
<stop stop-color="white"/>
<stop offset="1" stop-color="white" stop-opacity="0"/>
</linearGradient>
<linearGradient id="paint26_linear_236_894" x1="595" y1="0" x2="0" y2="0" gradientUnits="userSpaceOnUse">
<stop stop-color="white"/>
<stop offset="1" stop-color="white" stop-opacity="0"/>
</linearGradient>
<linearGradient id="paint27_linear_236_894" x1="595" y1="0" x2="0" y2="0" gradientUnits="userSpaceOnUse">
<stop stop-color="white"/>
<stop offset="1" stop-color="white" stop-opacity="0"/>
</linearGradient>
<linearGradient id="paint28_linear_236_894" x1="595" y1="0" x2="0" y2="0" gradientUnits="userSpaceOnUse">
<stop stop-color="white"/>
<stop offset="1" stop-color="white" stop-opacity="0"/>
</linearGradient>
<linearGradient id="paint29_linear_236_894" x1="595" y1="0" x2="0" y2="0" gradientUnits="userSpaceOnUse">
<stop stop-color="white"/>
<stop offset="1" stop-color="white" stop-opacity="0"/>
</linearGradient>
<linearGradient id="paint30_linear_236_894" x1="595" y1="0" x2="0" y2="0" gradientUnits="userSpaceOnUse">
<stop stop-color="white"/>
<stop offset="1" stop-color="white" stop-opacity="0"/>
</linearGradient>
<linearGradient id="paint31_linear_236_894" x1="595" y1="0" x2="0" y2="0" gradientUnits="userSpaceOnUse">
<stop stop-color="white"/>
<stop offset="1" stop-color="white" stop-opacity="0"/>
</linearGradient>
<linearGradient id="paint32_linear_236_894" x1="595" y1="0" x2="0" y2="0" gradientUnits="userSpaceOnUse">
<stop stop-color="white"/>
<stop offset="1" stop-color="white" stop-opacity="0"/>
</linearGradient>
<linearGradient id="paint33_linear_236_894" x1="595" y1="0" x2="0" y2="0" gradientUnits="userSpaceOnUse">
<stop stop-color="white"/>
<stop offset="1" stop-color="white" stop-opacity="0"/>
</linearGradient>
<linearGradient id="paint34_linear_236_894" x1="595" y1="0" x2="0" y2="0" gradientUnits="userSpaceOnUse">
<stop stop-color="white"/>
<stop offset="1" stop-color="white" stop-opacity="0"/>
</linearGradient>
<linearGradient id="paint35_linear_236_894" x1="595" y1="0" x2="0" y2="0" gradientUnits="userSpaceOnUse">
<stop stop-color="white"/>
<stop offset="1" stop-color="white" stop-opacity="0"/>
</linearGradient>
<linearGradient id="paint36_linear_236_894" x1="595" y1="0" x2="0" y2="0" gradientUnits="userSpaceOnUse">
<stop stop-color="white"/>
<stop offset="1" stop-color="white" stop-opacity="0"/>
</linearGradient>
<linearGradient id="paint37_linear_236_894" x1="595" y1="0" x2="0" y2="0" gradientUnits="userSpaceOnUse">
<stop stop-color="white"/>
<stop offset="1" stop-color="white" stop-opacity="0"/>
</linearGradient>
<linearGradient id="paint38_linear_236_894" x1="595" y1="0" x2="0" y2="0" gradientUnits="userSpaceOnUse">
<stop stop-color="white"/>
<stop offset="1" stop-color="white" stop-opacity="0"/>
</linearGradient>
<linearGradient id="paint39_linear_236_894" x1="595" y1="0" x2="0" y2="0" gradientUnits="userSpaceOnUse">
<stop stop-color="white"/>
<stop offset="1" stop-color="white" stop-opacity="0"/>
</linearGradient>
<linearGradient id="paint40_linear_236_894" x1="595" y1="0" x2="0" y2="0" gradientUnits="userSpaceOnUse">
<stop stop-color="white"/>
<stop offset="1" stop-color="white" stop-opacity="0"/>
</linearGradient>
<linearGradient id="paint41_linear_236_894" x1="595" y1="0" x2="0" y2="0" gradientUnits="userSpaceOnUse">
<stop stop-color="white"/>
<stop offset="1" stop-color="white" stop-opacity="0"/>
</linearGradient>
<linearGradient id="paint42_linear_236_894" x1="595" y1="0" x2="0" y2="0" gradientUnits="userSpaceOnUse">
<stop stop-color="white"/>
<stop offset="1" stop-color="white" stop-opacity="0"/>
</linearGradient>
<linearGradient id="paint43_linear_236_894" x1="595" y1="0" x2="0" y2="0" gradientUnits="userSpaceOnUse">
<stop stop-color="white"/>
<stop offset="1" stop-color="white" stop-opacity="0"/>
</linearGradient>
<linearGradient id="paint44_linear_236_894" x1="595" y1="0" x2="0" y2="0" gradientUnits="userSpaceOnUse">
<stop stop-color="white"/>
<stop offset="1" stop-color="white" stop-opacity="0"/>
</linearGradient>
<linearGradient id="paint45_linear_236_894" x1="595" y1="0" x2="0" y2="0" gradientUnits="userSpaceOnUse">
<stop stop-color="white"/>
<stop offset="1" stop-color="white" stop-opacity="0"/>
</linearGradient>
<linearGradient id="paint46_linear_236_894" x1="595" y1="0" x2="0" y2="0" gradientUnits="userSpaceOnUse">
<stop stop-color="white"/>
<stop offset="1" stop-color="white" stop-opacity="0"/>
</linearGradient>
<linearGradient id="paint47_linear_236_894" x1="595" y1="0" x2="0" y2="0" gradientUnits="userSpaceOnUse">
<stop stop-color="white"/>
<stop offset="1" stop-color="white" stop-opacity="0"/>
</linearGradient>
<linearGradient id="paint48_linear_236_894" x1="595" y1="0" x2="0" y2="0" gradientUnits="userSpaceOnUse">
<stop stop-color="white"/>
<stop offset="1" stop-color="white" stop-opacity="0"/>
</linearGradient>
<linearGradient id="paint49_linear_236_894" x1="595" y1="0" x2="0" y2="0" gradientUnits="userSpaceOnUse">
<stop stop-color="white"/>
<stop offset="1" stop-color="white" stop-opacity="0"/>
</linearGradient>
<linearGradient id="paint50_linear_236_894" x1="595" y1="0" x2="0" y2="0" gradientUnits="userSpaceOnUse">
<stop stop-color="white"/>
<stop offset="1" stop-color="white" stop-opacity="0"/>
</linearGradient>
<linearGradient id="paint51_linear_236_894" x1="595" y1="0" x2="0" y2="0" gradientUnits="userSpaceOnUse">
<stop stop-color="white"/>
<stop offset="1" stop-color="white" stop-opacity="0"/>
</linearGradient>
<linearGradient id="paint52_linear_236_894" x1="595" y1="0" x2="0" y2="0" gradientUnits="userSpaceOnUse">
<stop stop-color="white"/>
<stop offset="1" stop-color="white" stop-opacity="0"/>
</linearGradient>
<linearGradient id="paint53_linear_236_894" x1="595" y1="0" x2="0" y2="0" gradientUnits="userSpaceOnUse">
<stop stop-color="white"/>
<stop offset="1" stop-color="white" stop-opacity="0"/>
</linearGradient>
<linearGradient id="paint54_linear_236_894" x1="595" y1="0" x2="0" y2="0" gradientUnits="userSpaceOnUse">
<stop stop-color="white"/>
<stop offset="1" stop-color="white" stop-opacity="0"/>
</linearGradient>
<linearGradient id="paint55_linear_236_894" x1="595" y1="0" x2="0" y2="0" gradientUnits="userSpaceOnUse">
<stop stop-color="white"/>
<stop offset="1" stop-color="white" stop-opacity="0"/>
</linearGradient>
<linearGradient id="paint56_linear_236_894" x1="595" y1="0" x2="0" y2="0" gradientUnits="userSpaceOnUse">
<stop stop-color="white"/>
<stop offset="1" stop-color="white" stop-opacity="0"/>
</linearGradient>
<linearGradient id="paint57_linear_236_894" x1="595" y1="0" x2="0" y2="0" gradientUnits="userSpaceOnUse">
<stop stop-color="white"/>
<stop offset="1" stop-color="white" stop-opacity="0"/>
</linearGradient>
<linearGradient id="paint58_linear_236_894" x1="595" y1="0" x2="0" y2="0" gradientUnits="userSpaceOnUse">
<stop stop-color="white"/>
<stop offset="1" stop-color="white" stop-opacity="0"/>
</linearGradient>
<linearGradient id="paint59_linear_236_894" x1="595" y1="0" x2="0" y2="0" gradientUnits="userSpaceOnUse">
<stop stop-color="white"/>
<stop offset="1" stop-color="white" stop-opacity="0"/>
</linearGradient>
<linearGradient id="paint60_linear_236_894" x1="595" y1="0" x2="0" y2="0" gradientUnits="userSpaceOnUse">
<stop stop-color="white"/>
<stop offset="1" stop-color="white" stop-opacity="0"/>
</linearGradient>
<linearGradient id="paint61_linear_236_894" x1="595" y1="0" x2="0" y2="0" gradientUnits="userSpaceOnUse">
<stop stop-color="white"/>
<stop offset="1" stop-color="white" stop-opacity="0"/>
</linearGradient>
<linearGradient id="paint62_linear_236_894" x1="595" y1="0" x2="0" y2="0" gradientUnits="userSpaceOnUse">
<stop stop-color="white"/>
<stop offset="1" stop-color="white" stop-opacity="0"/>
</linearGradient>
<linearGradient id="paint63_linear_236_894" x1="595" y1="0" x2="0" y2="0" gradientUnits="userSpaceOnUse">
<stop stop-color="white"/>
<stop offset="1" stop-color="white" stop-opacity="0"/>
</linearGradient>
<linearGradient id="paint64_linear_236_894" x1="595" y1="0" x2="0" y2="0" gradientUnits="userSpaceOnUse">
<stop stop-color="white"/>
<stop offset="1" stop-color="white" stop-opacity="0"/>
</linearGradient>
<linearGradient id="paint65_linear_236_894" x1="595" y1="0" x2="0" y2="0" gradientUnits="userSpaceOnUse">
<stop stop-color="white"/>
<stop offset="1" stop-color="white" stop-opacity="0"/>
</linearGradient>
<linearGradient id="paint66_linear_236_894" x1="595" y1="0" x2="0" y2="0" gradientUnits="userSpaceOnUse">
<stop stop-color="white"/>
<stop offset="1" stop-color="white" stop-opacity="0"/>
</linearGradient>
<linearGradient id="paint67_linear_236_894" x1="595" y1="0" x2="0" y2="0" gradientUnits="userSpaceOnUse">
<stop stop-color="white"/>
<stop offset="1" stop-color="white" stop-opacity="0"/>
</linearGradient>
<linearGradient id="paint68_linear_236_894" x1="595" y1="0" x2="0" y2="0" gradientUnits="userSpaceOnUse">
<stop stop-color="white"/>
<stop offset="1" stop-color="white" stop-opacity="0"/>
</linearGradient>
<linearGradient id="paint69_linear_236_894" x1="595" y1="0" x2="0" y2="0" gradientUnits="userSpaceOnUse">
<stop stop-color="white"/>
<stop offset="1" stop-color="white" stop-opacity="0"/>
</linearGradient>
<linearGradient id="paint70_linear_236_894" x1="595" y1="0" x2="0" y2="0" gradientUnits="userSpaceOnUse">
<stop stop-color="white"/>
<stop offset="1" stop-color="white" stop-opacity="0"/>
</linearGradient>
<linearGradient id="paint71_linear_236_894" x1="595" y1="0" x2="0" y2="0" gradientUnits="userSpaceOnUse">
<stop stop-color="white"/>
<stop offset="1" stop-color="white" stop-opacity="0"/>
</linearGradient>
<linearGradient id="paint72_linear_236_894" x1="595" y1="0" x2="0" y2="0" gradientUnits="userSpaceOnUse">
<stop stop-color="white"/>
<stop offset="1" stop-color="white" stop-opacity="0"/>
</linearGradient>
<linearGradient id="paint73_linear_236_894" x1="595" y1="0" x2="0" y2="0" gradientUnits="userSpaceOnUse">
<stop stop-color="white"/>
<stop offset="1" stop-color="white" stop-opacity="0"/>
</linearGradient>
<linearGradient id="paint74_linear_236_894" x1="595" y1="0" x2="0" y2="0" gradientUnits="userSpaceOnUse">
<stop stop-color="white"/>
<stop offset="1" stop-color="white" stop-opacity="0"/>
</linearGradient>
</defs>
</svg>
