<?xml version="1.0" encoding="utf-8"?>
<!-- Generator: Adobe Illustrator 27.1.1, SVG Export Plug-In . SVG Version: 6.00 Build 0)  -->
<svg version="1.1" id="Layer_1" xmlns="http://www.w3.org/2000/svg" xmlns:xlink="http://www.w3.org/1999/xlink" x="0px" y="0px"
	 viewBox="0 0 900 900" style="enable-background:new 0 0 900 900;" xml:space="preserve">
<style type="text/css">
	.st0{fill:#BA7F54;}
	.st1{fill:#36312F;}
</style>
<g>
	<rect x="177.34" y="742.28" class="st0" width="493.49" height="33.99"/>
	<path class="st1" d="M517.85,246.16c40.89-0.02,78.2-23.33,96.13-60.08l24.33-49.3c1.67-3.39,1.44-7.42-0.61-10.6
		c-2.03-3.22-5.63-5.1-9.43-4.92l-51.76,1.9c-40.71,1.55-77.07,25.94-93.96,63.02c-16.88-37.08-53.24-61.47-93.96-63.02l-51.76-1.9
		c-3.79-0.14-7.37,1.73-9.43,4.91c-2.05,3.18-2.29,7.22-0.61,10.61l24.32,49.3c17.94,36.75,55.25,60.06,96.14,60.07
		c8.26,0,16.49-0.95,24.53-2.82v109.29c-6.36,1.67-12.25,4.78-17.22,9.09l-17.69-17.69c-4.2-4.2-11.01-4.2-15.21,0
		c-24.59,24.37-31.97,61.2-18.69,93.16h-49.57c-3.59,0-6.96,1.8-8.95,4.79l-39.85,59.77h-48.05c-5.94,0-10.76,4.82-10.76,10.76
		v139.9c0,5.94,4.82,10.76,10.76,10.76h204.47c1.16,0.01,2.31-0.18,3.4-0.56c0.29-0.13,0.58-0.27,0.85-0.43
		c0.76-0.27,1.48-0.64,2.15-1.08c0.29-0.26,0.58-0.54,0.84-0.83c0.56-0.47,1.07-0.99,1.52-1.56c0.24-0.39,0.45-0.8,0.63-1.22
		c0.35-0.55,0.65-1.14,0.88-1.74l42.72-132.89c12.55-1.38,23.55-9.03,29.2-20.32c5.65-11.29,5.2-24.68-1.22-35.55
		c0.29-0.17,0.57-0.35,0.84-0.55c16.42-16.09,25.72-38.07,25.84-61.05c0.12-22.99-8.96-45.06-25.21-61.32
		c-4.2-4.2-11.01-4.2-15.22,0l-17.71,17.65c-4.97-4.31-10.86-7.42-17.22-9.09V338.1l18.95-0.57c21.36-0.6,40.62-13,50.03-32.18
		l20.6-41.87c1.8-3.66,1.38-8.02-1.08-11.27c-2.46-3.25-6.56-4.82-10.56-4.07l-45.88,8.61c-12.38,2.35-23.64,8.71-32.06,18.09
		v-31.51C501.35,245.2,509.59,246.15,517.85,246.16z M498.26,205.02c10.92-34.82,42.58-58.99,79.04-60.35l33.72-1.23l-16.35,33.11
		c-18.24,37.37-60.69,56.25-100.66,44.79l-0.34-1.59L498.26,205.02z M471.07,221.35c-39.97,11.51-82.42-7.36-100.66-44.74
		l-16.35-33.17l33.72,1.23c36.47,1.36,68.12,25.53,79.04,60.35l4.58,14.68L471.07,221.35z M267.32,523.27h43.05
		c3.6,0,6.96-1.8,8.95-4.79l39.85-59.78h80.33c8.92,0,16.14,7.23,16.14,16.14c0,8.91-7.23,16.14-16.14,16.14h-43.05
		c-4.3,0-8.19,2.57-9.89,6.52l-29.49,68.81h-89.76V523.27z M389.47,641.64H267.32v-53.81h96.85c4.3,0,8.19-2.56,9.89-6.52
		l29.49-68.81h14.86c-1.36,8.73,0.53,17.67,5.3,25.11c-9.8,4.45-17.2,12.93-20.3,23.24c-3.1,10.31-1.58,21.46,4.16,30.57
		c-9.16,4.15-16.26,11.82-19.67,21.29C384.48,622.17,385.05,632.61,389.47,641.64z M453.01,641.64h-29.66
		c-8.92,0-16.14-7.23-16.14-16.14c0-8.91,7.23-16.14,16.14-16.14h39.35L453.01,641.64z M469.16,587.83H439.5
		c-8.92,0-16.14-7.22-16.14-16.14c0-8.91,7.22-16.14,16.14-16.14h39.35L469.16,587.83z M485.3,534.03h-29.66
		c-5.27,0.04-10.23-2.52-13.25-6.84c-3.02-4.32-3.73-9.85-1.88-14.79c13.43-0.38,25.63-7.93,31.98-19.77
		c2.05,10.52,8.48,19.67,17.68,25.16L485.3,534.03z M509.45,501.74c-8.92,0-16.14-7.22-16.14-16.14c0-8.91,7.22-16.14,16.14-16.14
		c8.92,0,16.14,7.23,16.14,16.14C525.59,494.52,518.37,501.74,509.45,501.74z M535.19,367.47c18.4,25.9,15.24,61.32-7.46,83.54
		c-0.35,0.43-0.66,0.89-0.92,1.36c-5.34-2.87-11.3-4.4-17.36-4.44c-13.82,0.05-26.49,7.69-32.99,19.88
		c-3.37-17.75-18.88-30.61-36.96-30.64h-12.67c-5.76-9.78-8.81-20.93-8.85-32.28c-0.04-13.41,4.13-26.5,11.92-37.42l45.04,45.03
		c4.2,4.2,11.01,4.2,15.22,0L535.19,367.47z M495.32,376.91l-12.77,12.77l-12.77-12.77C477.48,371.66,487.61,371.66,495.32,376.91z
		 M501.53,302.75c3.94-12.8,14.66-22.36,27.83-24.82l24.75-4.66l-11.09,22.6c-5.92,12.03-18.01,19.78-31.41,20.13l-14.32,0.43
		L501.53,302.75z"/>
	<path class="st1" d="M337.82,328.19l4.63-0.26c-0.89-14.44,7.41-27.36,19.78-33.05c3.75-1.73,7.81-2.79,12.17-3.06l-0.31-4.6
		c-18.74,1.13-34.89-13.18-36.03-31.92l-4.69,0.28c0.89,14.44-7.36,27.33-19.78,33.05c-3.7,1.7-7.81,2.79-12.12,3.03l0.26,4.63
		C320.54,295.13,336.68,309.44,337.82,328.19z M314.66,290.94c12.42-5.71,20.6-18.04,21.33-31.42
		c2.88,16.73,17.13,29.38,34.18,30.23c-3.09,0.55-6.14,1.49-9.01,2.81c-12.37,5.69-20.54,18.02-21.25,31.45
		c-1.42-8.18-5.56-15.57-11.82-21.19c-6.29-5.53-14.05-8.72-22.27-9.15C308.85,293.15,311.85,292.24,314.66,290.94z"/>
	<path class="st1" d="M655.72,193.08l-6.13-0.31c-0.94,18.9-13.53,34.46-30.5,40.08c-5.05,1.68-10.56,2.49-16.19,2.18l-0.34,6.06
		c24.6,1.22,43.51,22.16,42.27,46.69l6.06,0.33c0.94-18.9,13.6-34.48,30.5-40.08c5.13-1.7,10.56-2.5,16.26-2.21l0.26-6.03
		C673.39,238.55,654.47,217.61,655.72,193.08z"/>
</g>
</svg>
