<?xml version="1.0" encoding="UTF-8"?>
<svg id="Layer_2" data-name="Layer 2" xmlns="http://www.w3.org/2000/svg" viewBox="0 0 73.33 72.01">
  <defs>
    <style>
      .cls-1 {
        fill: #ba7e54;
      }

      .cls-2 {
        fill: #37322f;
      }
    </style>
  </defs>
  <g id="Layer_1-2" data-name="Layer 1">
    <g>
      <rect class="cls-1" x="1.86" y="68.16" width="55.79" height="3.84"/>
      <g>
        <path class="cls-2" d="m73.11,12.16c-.32-.49-.94-.71-1.5-.54l-29.88,9.49.67-5.28c0-.06,0-.12,0-.2,0-.01,0-.06,0-.07-.01-.15-.05-.3-.1-.4,0-.02-.04-.1-.05-.12-.07-.13-.15-.24-.28-.36-.02-.02-.04-.03-.07-.06-.12-.1-.25-.17-.4-.22-.13-.04-.27-.07-.47-.06h-.06s0,0,0,0c-.02,0-.06,0-.07,0l-23.74,3.43c-.06,0-.11.03-.14.04-.1.02-.18.05-.27.1-.07.04-.13.08-.2.13-.07.06-.14.12-.2.19-.02.02-.06.04-.09.09-.01.02-.05.1-.06.12-.01.02-.06.09-.07.11-.02.05-.03.1-.03.13-.03.08-.04.16-.05.25-.01.09-.01.18,0,.28,0,.02,0,.1,0,.13l1.57,7.73-7.08,3.28c-.32.15-.56.41-.68.73l-1.82,4.79H1.32c-.44,0-.84.21-1.09.58s-.3.82-.14,1.22l5.74,14.82h-3.45c-.14,0-.25.11-.25.25v2.14c0,.14.11.25.25.25h54.84c.14,0,.25-.11.25-.25v-2.14c0-.14-.11-.25-.25-.25h-4.39l4.57-14.91c.12-.4.05-.84-.2-1.17-.25-.34-.65-.54-1.06-.54h-2.48l7.29-8.34s.04-.07.04-.07l3.88-4.4s.02-.03.03-.05l8.12-9.29c.39-.44.43-1.1.11-1.59ZM18.2,46.36v6.17h-2.96v-6.17h2.96Zm-7.34-10.45l1.27-3.35,6.02-2.79,1.25,6.14h-8.54Zm8.66,7.81h-5.61c-.73,0-1.32.59-1.32,1.32v7.5h-3.93l-5.41-13.98h5.67s.03,0,.04,0h10.96l2.83,13.98h-1.92v-7.5c0-.73-.59-1.32-1.32-1.32Zm19.94-25.76l-4.41,34.57h-3.12l-4.25-28.72,11.78-5.85Zm-17.32,1.79l10.95-1.58-6.81,3.38-4.14-1.8Zm7.11,32.78h-3.79l-6.32-31.2,5.88,2.55,4.23,28.65Zm20.57-16.26s-.07.07-.11.13l-1.6,1.83-6.08-14.44,8.48-2.69,3.86,9.96-4.55,5.2Zm-10.7,16.26l12.21-13.98h3l-4.28,13.98h-10.94Zm28.78-36.95l-5.06,5.79s-.09.04-.13.08l-4.86,5.63-1.51,1.73-3.3-8.52,14.87-4.72Zm-21.73,24.87l-8.1,9.27,2.79-21.87,5.3,12.6Z"/>
        <path class="cls-2" d="m43.62,4.32c1.31.51,2.34,1.49,2.91,2.78.56,1.28.6,2.71.09,4.01-.05.13.01.27.14.32l.7.27s.06.02.09.02c.03,0,.07,0,.1-.02.06-.03.11-.08.13-.14.78-2,2.74-3.35,4.89-3.35.65,0,1.29.12,1.9.36.06.02.13.02.19,0,.06-.03.11-.08.13-.14l.27-.7c.05-.13-.01-.27-.14-.32-1.3-.51-2.33-1.49-2.9-2.77-.56-1.28-.6-2.71-.09-4.01.05-.13-.01-.27-.14-.32l-.71-.28c-.06-.02-.13-.02-.19,0-.06.03-.11.08-.13.14-.79,2.04-2.71,3.35-4.89,3.35-.65,0-1.29-.12-1.89-.35-.13-.05-.27.01-.32.14l-.27.7c-.02.06-.02.13,0,.19.03.06.08.11.14.13Z"/>
        <path class="cls-2" d="m.75,23.12c.03.06.08.1.15.12.06.02.13.01.19-.02.74-.39,1.58-.47,2.37-.22s1.44.79,1.83,1.52c.04.08.13.13.22.13.04,0,.08,0,.12-.03l.41-.21c.06-.03.1-.08.12-.15.02-.06.01-.13-.02-.19-.59-1.13-.43-2.53.41-3.5.25-.29.56-.53.9-.71.06-.03.1-.08.12-.15s.01-.13-.02-.19l-.21-.4c-.06-.12-.21-.17-.34-.1-1.52.8-3.4.21-4.2-1.31-.06-.12-.22-.17-.34-.11l-.41.21c-.06.03-.1.08-.12.15-.02.06-.01.13.02.19.6,1.15.44,2.52-.41,3.5-.25.29-.56.53-.89.71-.06.03-.1.08-.12.15-.02.06-.01.13.02.19l.21.41Zm2.28-3.92c.81.69,1.87,1.02,2.93.91-.69.81-1.01,1.89-.9,2.93-.4-.34-.86-.6-1.38-.76-.38-.12-.77-.18-1.16-.18-.13,0-.26,0-.39.02.69-.81,1-1.88.9-2.93Z"/>
      </g>
    </g>
  </g>
</svg>