<?xml version="1.0" encoding="utf-8"?>
<!-- Generator: Adobe Illustrator 27.1.1, SVG Export Plug-In . SVG Version: 6.00 Build 0)  -->
<svg version="1.1" id="Layer_1" xmlns="http://www.w3.org/2000/svg" xmlns:xlink="http://www.w3.org/1999/xlink" x="0px" y="0px"
	 viewBox="0 0 900 900" style="enable-background:new 0 0 900 900;" xml:space="preserve">
<style type="text/css">
	.st0{fill:#BA7F54;}
	.st1{fill:#36312F;}
</style>
<g>
	<rect x="288.91" y="627.02" class="st0" width="322.19" height="22.19"/>
	<g>
		<path class="st1" d="M516.23,432.57c-1.43-2.76-2.84-5.59-4.22-8.33l-0.08-0.16c-2.35-4.69-4.78-9.55-7.36-14.28
			c-3.84-7.04-7.96-14.03-11.94-20.8l-2.1-3.58c-1.52-2.6-3.81-4.38-6.99-5.45c-3.81-1.29-7.65-2.7-11.4-4.08
			c-1.7-0.63-3.39-1.25-5.09-1.87c-2.79-1.01-5.09-0.54-7.02,1.45c-1.44,1.47-2.94,2.94-4.41,4.38c-0.55,0.53-1.09,1.07-1.64,1.6
			c-2.05,2.01-4.1,4.03-6.19,6.08l-2.55,2.5l-3.87-4.04c-3.4-3.56-6.62-6.91-9.92-10.32c-2.26-2.33-4.19-2.73-7.38-1.54
			c-1.71,0.64-3.42,1.29-5.12,1.94c-3.39,1.29-6.89,2.62-10.38,3.85c-3.16,1.11-5.52,2.78-7.24,5.12c-0.37,0.5-0.75,1-1.16,1.53
			c-0.5,0.64-1.06,1.36-1.57,2.09c-8.81,12.55-16.8,25.84-24.52,38.68l-2.78,4.62c-1.41,2.33-1.44,4.43-0.12,6.78
			c5.31,9.43,10.6,18.94,15.73,28.13c2.01,3.61,4.02,7.22,6.04,10.83l2.14,3.84c2.25,4.05,4.58,8.24,6.92,12.34
			c0.88,1.55,2.27,2.59,3.9,2.92c1.61,0.33,3.27-0.07,4.66-1.14c0.84-0.64,3.41-3.07,1.06-7.24c-5.45-9.71-10.92-19.51-16.21-28.99
			c-4.24-7.59-8.47-15.18-12.72-22.76c-0.5-0.9-0.49-1.5,0.06-2.38c1.4-2.27,2.8-4.59,4.14-6.83l0.06-0.1
			c1.97-3.29,4.01-6.69,6.12-9.97c5.25-8.14,10.73-16.32,16.04-24.22l1.02-1.52c0.47-0.69,1.26-1.34,2.03-1.65
			c2.46-0.99,4.99-1.94,7.44-2.85c1.63-0.61,3.26-1.22,4.88-1.85c0.69-0.27,0.96-0.22,1.4,0.25c2.73,2.88,5.48,5.75,8.23,8.62
			c2.08,2.17,4.16,4.33,6.23,6.51c1.49,1.57,3.06,2.37,4.68,2.4c0.01,0,0.01,0,0.02,0c1.61,0,3.27-0.79,4.78-2.28
			c1.43-1.41,2.87-2.82,4.31-4.23l0.14-0.14c3.52-3.46,7.16-7.04,10.71-10.58c0.74-0.73,1.18-0.92,2.19-0.5
			c2.79,1.15,5.77,2.35,8.84,3.17c3.35,0.89,5.68,2.77,7.36,5.92c6.07,11.45,12.6,23.6,21.16,39.41c0.54,1.01,0.51,1.77-0.12,2.89
			c-10.65,19.01-20.08,35.91-28.8,51.66c-0.74,1.33-1.09,2.75-0.96,3.88c0.28,2.48,2.07,4.15,4.92,4.58
			c0.22,0.03,0.44,0.05,0.66,0.05c2.01,0,3.98-1.3,5.15-3.39l9.88-17.73c6.96-12.48,13.91-24.96,20.88-37.43
			C517.24,436.42,517.27,434.57,516.23,432.57z"/>
		<path class="st1" d="M584.39,382.47c-1.63-5.04-5.43-8.42-11.3-10.06c-2.86-0.8-5.78-1.51-8.63-2.2c-3.9-0.95-7.93-1.93-11.8-3.14
			c-4.78-1.5-8.14-0.52-11.22,3.25c-2.08,2.55-4.37,4.88-6.79,7.34l-0.1,0.1c-0.9,0.92-1.81,1.84-2.7,2.78l-0.05-0.05
			c-0.24-0.24-0.46-0.44-0.66-0.66l-2.67-2.81c-2.62-2.75-5.59-5.87-8.47-8.95c-1.65-1.76-3.76-2.36-5.95-1.69
			c-7.38,2.25-14.7,4.65-20.26,6.5c-2.56,0.85-4.08,3.41-3.47,5.83c0.41,1.61,1.35,2.9,2.65,3.63c1.35,0.76,3.05,0.89,4.76,0.36
			c4.64-1.43,9.66-3.03,15.36-4.91c0.69-0.23,0.97-0.16,1.42,0.33c2.42,2.59,4.86,5.17,7.3,7.74c1.78,1.88,3.56,3.76,5.33,5.65
			c1.41,1.5,3.02,2.3,4.67,2.3c1.64,0,3.26-0.8,4.69-2.3l1.71-1.81c3.62-3.83,7.36-7.79,11.08-11.65c0.3-0.31,0.97-0.53,1.24-0.47
			c7.93,1.93,13.96,3.45,19.54,4.94c2.63,0.7,3.61,1.96,3.61,4.65v83.35l0,0.43c-0.01,0.33-0.01,0.74,0.02,1.14
			c0.15,1.76,0.99,3.25,2.36,4.21c0.93,0.65,2.04,1,3.22,1c0.53,0,1.06-0.07,1.58-0.21c2.77-0.73,4.17-2.75,4.17-6.01l0-9.61
			c0-24.54,0-49.92-0.02-74.96C584.98,385.04,584.78,383.68,584.39,382.47z"/>
		<path class="st1" d="M373.29,377.84c4.26,1.41,9.32,3.07,14.58,4.67c0.77,0.24,2.28,0.59,3.69,0.33c2.62-0.49,4.22-2.33,4.31-4.92
			c0.08-2.44-1.4-4.39-3.95-5.21c-2.33-0.75-4.67-1.5-7.01-2.24l-0.22-0.07c-3.72-1.18-7.57-2.4-11.33-3.65
			c-3.13-1.04-5.5-0.51-7.67,1.73c-2.92,3.01-5.85,5.88-8.96,8.93c-1.15,1.13-2.32,2.27-3.49,3.43l-0.01-0.02
			c-0.23-0.3-0.45-0.59-0.71-0.86c-1.22-1.25-2.45-2.51-3.68-3.76l-0.47-0.48c-2.4-2.44-4.88-4.96-7.28-7.47
			c-1.81-1.89-3.99-2.46-6.65-1.74c-4.39,1.19-8.78,2.36-13.17,3.53c-2.41,0.64-4.82,1.29-7.23,1.93
			c-7.77,2.09-11.88,7.21-11.88,14.82l0,69.95l0,13.99c0,0.13,0,0.25-0.01,0.38c-0.01,0.34-0.02,0.69,0.03,1.05
			c0.3,2.33,1.42,3.87,3.43,4.7c0.77,0.32,1.53,0.48,2.28,0.48c1.22,0,2.4-0.43,3.53-1.27c1.86-1.4,2.1-3.44,2.1-5.06
			c0-7.75,0-15.49,0-23.24c0-20.13,0-40.95-0.05-61.46c-0.01-2.88,2.09-3.86,3.34-4.19c5.07-1.33,10.41-2.76,16.82-4.5
			c0.86-0.24,1.33-0.12,1.9,0.48c3.82,3.99,7.74,7.99,11.53,11.85l1.43,1.46c1.54,1.57,3.12,2.38,4.7,2.39
			c1.54,0.03,3.16-0.74,4.77-2.33l3.4-3.36c3.26-3.22,6.63-6.54,9.92-9.85C371.9,377.64,372.37,377.54,373.29,377.84z"/>
		<path class="st1" d="M433.59,443.85l0-0.31c0.01-0.31,0.01-0.64-0.03-0.97c-0.31-2.37-1.54-3.97-3.64-4.74
			c-2.05-0.76-4.05-0.4-5.77,1.03c-1.69,1.4-1.92,3.29-1.92,4.96c0.01,17.79,0.01,35.58,0.01,53.37l0,13.77l0,67
			c0,0.15,0,0.29-0.01,0.45c-0.01,0.37-0.02,0.75,0.02,1.13c0.26,2.41,1.4,4,3.49,4.84c0.74,0.3,1.49,0.45,2.22,0.45
			c1.26,0,2.47-0.44,3.58-1.3c1.81-1.4,2.05-3.35,2.05-5.07c-0.01-35.25-0.01-70.51-0.01-105.76L433.59,443.85z"/>
		<path class="st1" d="M470.14,443.55c0-0.24,0.01-0.53-0.02-0.83c-0.26-2.45-1.49-4.1-3.65-4.91c-2.04-0.76-4.04-0.4-5.77,1.04
			c-1.69,1.4-1.92,3.29-1.92,4.96c0.01,17.67,0.01,35.34,0.01,53.01l0,81.13c0,0.12,0,0.23,0,0.35l0,0.09
			c-0.01,0.37-0.02,0.75,0.03,1.14c0.26,2.42,1.4,4,3.49,4.83c0.74,0.3,1.48,0.45,2.22,0.45c1.26,0,2.47-0.44,3.58-1.3
			c1.8-1.4,2.05-3.35,2.05-5.07c-0.01-30.85-0.01-61.69-0.01-92.54v-42.06L470.14,443.55z"/>
		<path class="st1" d="M417.36,328.27c-0.06,7.67,1.63,15.48,5.17,23.86c2.2,5.21,5.56,9.67,9.97,13.26
			c3.21,2.61,6.94,3.99,10.78,3.99c4.06,0,7.95-1.61,10.95-4.52c2.64-2.56,5.6-5.7,7.54-9.5c3.96-7.75,6.04-16.17,6.38-25.77
			c0-0.21,0-0.43,0.01-0.64c0.01-0.5,0.02-1.01-0.02-1.53c-0.03-0.42-0.09-0.83-0.15-1.25c-0.04-0.29-0.09-0.59-0.12-0.88
			c-0.84-8.05-4.91-13.65-12.11-16.66c-7.45-3.11-15.46-3.48-23.82-1.11c-5.59,1.59-9.69,5.02-12.17,10.21
			C418.21,321.01,417.39,324.55,417.36,328.27z M428.65,324.72c1.23-4.52,4.09-7.05,8.75-7.73c4.49-0.66,8.09-0.53,11.54,0.42
			c4.52,1.26,7.14,4.28,7.57,8.74c0.08,0.8,0.17,1.61,0.27,2.46l0.13,1.09c-0.99,8.97-2.5,18.38-9.02,26.23
			c-0.46,0.55-1.07,1.27-1.76,1.93c-1.9,1.83-3.41,1.99-5.22,0.56c-2.27-1.79-4.61-3.73-6.04-6.04c-3.05-4.92-5.01-10.65-6.18-18.05
			C428.18,331.06,427.79,327.87,428.65,324.72z"/>
		<path class="st1" d="M344.82,429.19l0-0.3c0.01-0.26,0.01-0.54-0.02-0.82c-0.27-2.42-1.42-4-3.49-4.83c-2.05-0.82-4-0.54-5.8,0.85
			c-1.82,1.41-2.05,3.37-2.05,4.92c0.01,16.66,0.01,33.32,0,49.98l0,10l0,59.67c0,0.15,0,0.29-0.01,0.44
			c-0.01,0.35-0.02,0.75,0.02,1.14c0.26,2.41,1.4,3.99,3.49,4.84c0.74,0.3,1.49,0.45,2.22,0.45c1.26,0,2.46-0.44,3.58-1.3
			c1.81-1.4,2.05-3.35,2.05-5.07c-0.01-31.99-0.01-63.97-0.01-95.96V429.19z"/>
		<path class="st1" d="M550.16,423.23c-2.1-0.83-4.15-0.49-5.93,0.98c-1.69,1.39-1.91,3.29-1.91,4.96
			c0.01,31.16,0.01,62.31,0.01,93.47v26.48l0,0.3c-0.01,0.25-0.01,0.54,0.02,0.83c0.29,2.35,1.39,3.91,3.35,4.75
			c0.8,0.34,1.6,0.52,2.38,0.52c1.19,0,2.34-0.4,3.44-1.2c1.93-1.4,2.18-3.42,2.18-5.03c0-15.38,0-30.76,0-46.13v-73.51
			c0-0.12,0-0.23,0-0.35l0-0.09c0.01-0.35,0.02-0.75-0.03-1.14C553.39,425.63,552.25,424.05,550.16,423.23z"/>
		<path class="st1" d="M521.64,358.75c3.11,2.47,6.61,3.77,10.12,3.77c3.99,0,7.7-1.72,10.43-4.85c2.13-2.44,4.53-5.29,6.05-8.4
			c4.21-8.63,5.81-17.33,4.75-25.87c-0.78-6.26-3.96-10.9-9.45-13.81c-3.83-2.02-8.17-3.01-13.73-3.1c-0.58,0.05-1.16,0.1-1.73,0.15
			c-1.24,0.1-2.53,0.2-3.79,0.38c-9.72,1.42-14.91,6.79-15.88,16.41c-0.57,5.71,0.18,11.67,2.31,18.21
			C513.27,349.5,516.64,354.78,521.64,358.75z M519.07,326.75c0.06-0.75,0.13-1.68,0.34-2.55c1.07-4.58,3.79-6.75,8.79-7.04
			c2.29-0.13,4.49-0.02,6.52,0.34c4.44,0.78,6.77,3.51,6.92,8.09c0.25,7.53-1.38,14.88-4.83,21.86c-0.83,1.67-2.12,3.2-3.39,4.71
			c-0.47,0.55-0.93,1.1-1.38,1.66c-0.28,0.36-0.6,0.55-0.94,0.56c-0.37,0-0.85-0.21-1.24-0.62c-0.48-0.51-0.99-1.01-1.49-1.52
			c-1.58-1.58-3.21-3.22-4.24-5.07c-3.21-5.74-4.89-12.16-5.13-19.59C519.03,327.35,519.05,327.06,519.07,326.75l-0.25-0.02
			L519.07,326.75z"/>
		<path class="st1" d="M342.86,359.36c2.84,2.12,6,3.24,9.15,3.24c3.72,0,7.19-1.52,10.03-4.4c2.51-2.54,4.64-5.36,6.16-8.15
			c3.5-6.41,5.3-13.74,5.35-21.78l0-0.98c0-0.65,0.01-1.29-0.01-1.93c-0.16-8.01-4.86-14.25-12.91-17.12
			c-4.3-1.54-8.97-2.02-14.3-1.48c-8.33,0.84-13.52,4.17-15.88,10.18c-1.07,2.72-1.69,5.85-1.8,9.06
			c-0.26,7.51,1.6,15.17,5.66,23.43C336.18,353.2,338.97,356.45,342.86,359.36z M356.67,317.98c3.03,0.88,4.73,2.97,5.21,6.39
			c0.69,4.93-0.31,9.67-1.38,14.11c-1.52,6.27-3.68,10.66-7.01,14.24c-1.92,2.06-2.24,2.08-4.34,0.23
			c-3.79-3.33-6.36-7.82-7.86-13.74c-0.91-3.57-1.53-7.06-1.85-10.37c-0.18-1.81,0.02-3.87,0.61-6.31c0.68-2.79,2.84-4.51,6.43-5.1
			c0.9-0.15,1.83-0.23,2.91-0.32c0.54-0.05,1.11-0.1,1.75-0.16c0.44,0.08,0.92,0.15,1.43,0.23
			C353.84,317.36,355.29,317.58,356.67,317.98z"/>
		<path class="st1" d="M373.77,462.89c-1.45-1.02-3.31-1.28-5.1-0.72c-2.49,0.77-3.86,2.88-3.86,5.92l0,81.17l0,0.24
			c0,0.24-0.01,0.48,0.01,0.72c0.15,1.79,1.05,3.36,2.46,4.31c0.92,0.62,2.02,0.95,3.17,0.95c0.62,0,1.24-0.1,1.85-0.29
			c2.45-0.76,3.86-2.87,3.86-5.77c0-10.15,0-20.29,0-30.44l0-46.77c0-0.5,0.01-1,0.01-1.52c0.01-1.11,0.02-2.25-0.03-3.38
			C376.05,465.5,375.19,463.88,373.77,462.89z"/>
		<path class="st1" d="M522.35,468.11l0-0.24c0-0.24,0.01-0.48-0.01-0.72c-0.15-1.82-1.08-3.42-2.55-4.37
			c-1.48-0.96-3.33-1.17-5.09-0.56c-2.35,0.81-3.7,2.9-3.7,5.72c0,11.11,0,22.22,0,33.33l0,47.54c0,0.13,0,0.26-0.01,0.41
			c-0.01,0.33-0.02,0.67,0.03,1.02c0.28,2.35,1.38,3.9,3.34,4.75c0.8,0.34,1.6,0.52,2.38,0.52c1.19,0,2.34-0.4,3.44-1.2
			c1.93-1.4,2.18-3.42,2.18-5.02c0-19.68,0-39.36,0-59.04V468.11z"/>
		<path class="st1" d="M597.46,317.68c-4.74-1.84-8.48-5.43-10.53-10.09c-2.05-4.66-2.17-9.84-0.32-14.58
			c0.02-0.06,0.02-0.13,0-0.19c-0.03-0.06-0.08-0.11-0.14-0.13l-2.48-0.97c-0.06-0.02-0.13-0.02-0.19,0s-0.11,0.08-0.13,0.14
			c-2.87,7.4-9.85,12.18-17.79,12.18c-2.38,0-4.69-0.44-6.87-1.29c-0.13-0.05-0.27,0.01-0.32,0.14l-0.96,2.45
			c-0.02,0.06-0.02,0.13,0,0.19c0.03,0.06,0.08,0.11,0.14,0.13c4.75,1.84,8.51,5.43,10.56,10.09c2.05,4.66,2.17,9.84,0.33,14.58
			c-0.05,0.13,0.01,0.27,0.14,0.32l2.45,0.96c0.03,0.01,0.06,0.02,0.09,0.02c0.03,0,0.07-0.01,0.1-0.02
			c0.06-0.03,0.11-0.08,0.13-0.14c2.82-7.29,9.97-12.18,17.79-12.18c2.37,0,4.7,0.44,6.91,1.29c0.06,0.02,0.13,0.02,0.19,0
			c0.06-0.03,0.11-0.08,0.13-0.14l0.93-2.45C597.65,317.88,597.59,317.73,597.46,317.68z"/>
		<path class="st1" d="M369.57,282.72c0.06,0.04,0.12,0.06,0.19,0.04c6.3-1.09,12.65,0.35,17.87,4.04
			c5.21,3.69,8.68,9.18,9.75,15.47c0.02,0.12,0.13,0.21,0.25,0.21c0.01,0,0.03,0,0.04,0l3.25-0.54c0.07-0.01,0.12-0.05,0.16-0.1
			c0.04-0.05,0.05-0.12,0.04-0.19c-1.66-9.66,2.87-19.53,11.28-24.58c2.55-1.53,5.33-2.56,8.26-3.07c0.07-0.01,0.12-0.05,0.16-0.1
			s0.05-0.12,0.04-0.19l-0.58-3.22c-0.02-0.14-0.16-0.23-0.29-0.2c-12.99,2.22-25.36-6.54-27.59-19.53
			c-0.02-0.14-0.16-0.23-0.29-0.2l-3.28,0.56c-0.07,0.01-0.12,0.05-0.16,0.1c-0.04,0.05-0.05,0.12-0.04,0.19
			c1.69,9.81-2.74,19.45-11.28,24.58c-2.56,1.54-5.33,2.56-8.22,3.04c-0.14,0.02-0.23,0.15-0.21,0.29l0.54,3.25
			C369.48,282.62,369.52,282.68,369.57,282.72z M378.55,277.96c7.77-4.66,12.66-13.29,12.77-22.33
			c3.69,10.22,13.57,17.2,24.46,17.28c-1.6,0.58-3.14,1.31-4.57,2.17c-7.76,4.65-12.62,13.28-12.72,22.33
			c-1.81-5.03-5.08-9.33-9.54-12.53c-4.45-3.12-9.55-4.77-14.85-4.82C375.66,279.5,377.15,278.8,378.55,277.96z"/>
	</g>
</g>
</svg>
